<?xml version="1.0" encoding="UTF-8" standalone="no"?>
<!-- Created with Inkscape (http://www.inkscape.org/) -->
<svg
   xmlns:dc="http://purl.org/dc/elements/1.1/"
   xmlns:cc="http://creativecommons.org/ns#"
   xmlns:rdf="http://www.w3.org/1999/02/22-rdf-syntax-ns#"
   xmlns:svg="http://www.w3.org/2000/svg"
   xmlns="http://www.w3.org/2000/svg"
   xmlns:xlink="http://www.w3.org/1999/xlink"
   xmlns:sodipodi="http://sodipodi.sourceforge.net/DTD/sodipodi-0.dtd"
   xmlns:inkscape="http://www.inkscape.org/namespaces/inkscape"
   width="830"
   height="800"
   id="svg2"
   sodipodi:version="0.32"
   inkscape:version="0.46"
   sodipodi:docname="libre.fm.svg"
   inkscape:output_extension="org.inkscape.output.svg.inkscape"
   version="1.0"
   inkscape:export-filename="/home/mattl/Desktop/libre.fm.png"
   inkscape:export-xdpi="90.007538"
   inkscape:export-ydpi="90.007538">
  <defs
     id="defs4">
    <inkscape:perspective
       sodipodi:type="inkscape:persp3d"
       inkscape:vp_x="0 : 526.18109 : 1"
       inkscape:vp_y="0 : 1000 : 0"
       inkscape:vp_z="744.09448 : 526.18109 : 1"
       inkscape:persp3d-origin="372.04724 : 350.78739 : 1"
       id="perspective10" />
  </defs>
  <sodipodi:namedview
     id="base"
     pagecolor="#ffffff"
     bordercolor="#666666"
     borderopacity="1.0"
     gridtolerance="10000"
     guidetolerance="10"
     objecttolerance="10"
     inkscape:pageopacity="0.0"
     inkscape:pageshadow="2"
     inkscape:zoom="0.77536223"
     inkscape:cx="427.05817"
     inkscape:cy="345.75664"
     inkscape:document-units="px"
     inkscape:current-layer="layer1"
     showgrid="false"
     showguides="true"
     inkscape:guide-bbox="true"
     inkscape:window-width="1680"
     inkscape:window-height="975"
     inkscape:window-x="0"
     inkscape:window-y="25" />
  <metadata
     id="metadata7">
    <rdf:RDF>
      <cc:Work
         rdf:about="">
        <dc:format>image/svg+xml</dc:format>
        <dc:type
           rdf:resource="http://purl.org/dc/dcmitype/StillImage" />
      </cc:Work>
    </rdf:RDF>
  </metadata>
  <g
     inkscape:label="Layer 1"
     inkscape:groupmode="layer"
     id="layer1"
     transform="translate(36.732087,-43.723811)">
    <g
       id="g3163"
       transform="translate(765.48962,-12.332927)">
      <rect
         ry="20"
         rx="20"
         y="70.170929"
         x="-749.63904"
         height="62.013931"
         width="207.01711"
         id="rect2391"
         style="opacity:1;fill:#980101;fill-opacity:1;stroke:none;stroke-width:99.74900055;stroke-linecap:round;stroke-linejoin:miter;stroke-miterlimit:4;stroke-dasharray:none;stroke-opacity:0.91747568" />
      <flowRoot
         transform="matrix(1.3038888,0,0,1.3038888,225.36638,-27.632058)"
         style="font-size:72px;font-style:normal;font-variant:normal;font-weight:normal;font-stretch:normal;text-align:start;line-height:125%;writing-mode:lr-tb;text-anchor:start;fill:#ffffff;fill-opacity:1;stroke:none;stroke-width:1px;stroke-linecap:butt;stroke-linejoin:miter;stroke-opacity:1;font-family:Dyuthi;-inkscape-font-specification:Dyuthi"
         id="flowRoot2383"
         xml:space="preserve"><flowRegion
           id="flowRegion2385"><rect
             style="font-size:72px;font-style:normal;font-variant:normal;font-weight:normal;font-stretch:normal;text-align:start;line-height:125%;writing-mode:lr-tb;text-anchor:start;fill:#ffffff;fill-opacity:1;font-family:Dyuthi;-inkscape-font-specification:Dyuthi"
             y="52.843498"
             x="-741.43127"
             height="360.228"
             width="919.26538"
             id="rect2387" /></flowRegion><flowPara
           id="flowPara2389">libre.fm</flowPara></flowRoot>    </g>
    <flowRoot
       transform="matrix(0.9060289,0,0,0.9060289,930.33902,-0.501515)"
       style="font-size:72px;font-style:normal;font-variant:normal;font-weight:normal;font-stretch:normal;text-align:start;line-height:125%;writing-mode:lr-tb;text-anchor:start;fill:#000000;fill-opacity:1;stroke:none;stroke-width:1px;stroke-linecap:butt;stroke-linejoin:miter;stroke-opacity:1;font-family:Dyuthi;-inkscape-font-specification:Dyuthi"
       id="flowRoot3174"
       xml:space="preserve"><flowRegion
         id="flowRegion3176"><rect
           style="font-size:72px;font-style:normal;font-variant:normal;font-weight:normal;font-stretch:normal;text-align:start;line-height:125%;writing-mode:lr-tb;text-anchor:start;fill:#000000;fill-opacity:1;font-family:Dyuthi;-inkscape-font-specification:Dyuthi"
           y="52.843498"
           x="-741.43127"
           height="360.228"
           width="919.26538"
           id="rect3178" /></flowRegion><flowPara
         id="flowPara3187">artistic. freedom.</flowPara></flowRoot>    <g
       id="g3347"
       transform="translate(761.83603,14.114191)">
      <flowRoot
         transform="matrix(0.9060289,0,0,0.9060289,-93.169934,85.541732)"
         style="font-size:72px;font-style:normal;font-variant:normal;font-weight:normal;font-stretch:normal;text-align:start;line-height:125%;writing-mode:lr-tb;text-anchor:start;fill:#000000;fill-opacity:1;stroke:none;stroke-width:1px;stroke-linecap:butt;stroke-linejoin:miter;stroke-opacity:1;font-family:Dyuthi;-inkscape-font-specification:Dyuthi"
         id="flowRoot3191"
         xml:space="preserve"><flowRegion
           id="flowRegion3193"><rect
             style="font-size:72px;font-style:normal;font-variant:normal;font-weight:normal;font-stretch:normal;text-align:start;line-height:125%;writing-mode:lr-tb;text-anchor:start;fill:#000000;fill-opacity:1;font-family:Dyuthi;-inkscape-font-specification:Dyuthi"
             y="52.843498"
             x="-741.43127"
             height="360.228"
             width="919.26538"
             id="rect3195" /></flowRegion><flowPara
           id="flowPara3199">libre.fm is a project to help you</flowPara></flowRoot>      <flowRoot
         xml:space="preserve"
         id="flowRoot3203"
         style="font-size:72px;font-style:normal;font-variant:normal;font-weight:normal;font-stretch:normal;text-align:start;line-height:125%;writing-mode:lr-tb;text-anchor:start;fill:#000000;fill-opacity:1;stroke:none;stroke-width:1px;stroke-linecap:butt;stroke-linejoin:miter;stroke-opacity:1;font-family:Dyuthi;-inkscape-font-specification:Dyuthi"
         transform="matrix(0.9060289,0,0,0.9060289,-88.40218,115.02965)"><flowRegion
           id="flowRegion3205"><rect
             id="rect3207"
             width="919.26538"
             height="360.228"
             x="-741.43127"
             y="52.843498"
             style="font-size:72px;font-style:normal;font-variant:normal;font-weight:normal;font-stretch:normal;text-align:start;line-height:125%;writing-mode:lr-tb;text-anchor:start;fill:#000000;fill-opacity:1;font-family:Dyuthi;-inkscape-font-specification:Dyuthi" /></flowRegion><flowPara
           id="flowPara3209">keep track of what music you like</flowPara></flowRoot>      <flowRoot
         transform="matrix(0.9060289,0,0,0.9060289,-101.68519,144.10211)"
         style="font-size:72px;font-style:normal;font-variant:normal;font-weight:normal;font-stretch:normal;text-align:start;line-height:125%;writing-mode:lr-tb;text-anchor:start;fill:#000000;fill-opacity:1;stroke:none;stroke-width:1px;stroke-linecap:butt;stroke-linejoin:miter;stroke-opacity:1;font-family:Dyuthi;-inkscape-font-specification:Dyuthi"
         id="flowRoot3211"
         xml:space="preserve"><flowRegion
           id="flowRegion3213"><rect
             style="font-size:72px;font-style:normal;font-variant:normal;font-weight:normal;font-stretch:normal;text-align:start;line-height:125%;writing-mode:lr-tb;text-anchor:start;fill:#000000;fill-opacity:1;font-family:Dyuthi;-inkscape-font-specification:Dyuthi"
             y="52.843498"
             x="-741.43127"
             height="360.228"
             width="919.26538"
             id="rect3215" /></flowRegion><flowPara
           id="flowPara3217">and share that, with your friends...</flowPara></flowRoot>      <flowRoot
         transform="matrix(0.9060289,0,0,0.9060289,-120.2833,172.73197)"
         style="font-size:72px;font-style:normal;font-variant:normal;font-weight:normal;font-stretch:normal;text-align:start;line-height:125%;writing-mode:lr-tb;text-anchor:start;fill:#000000;fill-opacity:1;stroke:none;stroke-width:1px;stroke-linecap:butt;stroke-linejoin:miter;stroke-opacity:1;font-family:Dyuthi;-inkscape-font-specification:Dyuthi"
         id="flowRoot3227"
         xml:space="preserve"><flowRegion
           id="flowRegion3229"><rect
             style="font-size:72px;font-style:normal;font-variant:normal;font-weight:normal;font-stretch:normal;text-align:start;line-height:125%;writing-mode:lr-tb;text-anchor:start;fill:#000000;fill-opacity:1;font-family:Dyuthi;-inkscape-font-specification:Dyuthi"
             y="52.843498"
             x="-741.43127"
             height="360.228"
             width="919.26538"
             id="rect3231" /></flowRegion><flowPara
           id="flowPara3235">...discover new music, and meet new</flowPara></flowRoot>      <flowRoot
         xml:space="preserve"
         id="flowRoot3239"
         style="font-size:72px;font-style:normal;font-variant:normal;font-weight:normal;font-stretch:normal;text-align:start;line-height:125%;writing-mode:lr-tb;text-anchor:start;fill:#000000;fill-opacity:1;stroke:none;stroke-width:1px;stroke-linecap:butt;stroke-linejoin:miter;stroke-opacity:1;font-family:Dyuthi;-inkscape-font-specification:Dyuthi"
         transform="matrix(0.9060289,0,0,0.9060289,-122.87702,201.36183)"><flowRegion
           id="flowRegion3241"><rect
             id="rect3243"
             width="919.26538"
             height="360.228"
             x="-741.43127"
             y="52.843498"
             style="font-size:72px;font-style:normal;font-variant:normal;font-weight:normal;font-stretch:normal;text-align:start;line-height:125%;writing-mode:lr-tb;text-anchor:start;fill:#000000;fill-opacity:1;font-family:Dyuthi;-inkscape-font-specification:Dyuthi" /></flowRegion><flowPara
           id="flowPara3245">people who share your taste in music</flowPara></flowRoot>    </g>
    <path
       style="fill:none;fill-rule:evenodd;stroke:#000000;stroke-width:5;stroke-linecap:butt;stroke-linejoin:miter;stroke-miterlimit:4;stroke-dasharray:none;stroke-opacity:1"
       d="M -13.33814,335.07675 C -17.87272,412.04879 13.70089,456.29778 86.97852,462.7525"
       id="path3374"
       sodipodi:nodetypes="cs" />
    <path
       style="fill:#000000;fill-opacity:1;stroke:none;stroke-width:5;stroke-linecap:round;stroke-linejoin:miter;stroke-miterlimit:4;stroke-opacity:0.91747568"
       d="M 83.33064,426.32739 L 114.28391,457.28066 L 83.33064,488.23393 L 83.33064,426.32739 z"
       id="rect3376"
       sodipodi:nodetypes="cccc" />
    <flowRoot
       xml:space="preserve"
       id="flowRoot3393"
       style="font-size:72px;font-style:normal;font-variant:normal;font-weight:normal;font-stretch:normal;text-align:start;line-height:125%;writing-mode:lr-tb;text-anchor:start;fill:#000000;fill-opacity:1;stroke:none;stroke-width:1px;stroke-linecap:butt;stroke-linejoin:miter;stroke-opacity:1;font-family:Dyuthi;-inkscape-font-specification:Dyuthi"
       transform="matrix(0.9060289,0,0,0.9060289,845.52585,287.68088)"><flowRegion
         id="flowRegion3395"><rect
           id="rect3397"
           width="919.26538"
           height="360.228"
           x="-741.43127"
           y="52.843498"
           style="font-size:72px;font-style:normal;font-variant:normal;font-weight:normal;font-stretch:normal;text-align:start;line-height:125%;writing-mode:lr-tb;text-anchor:start;fill:#000000;fill-opacity:1;font-family:Dyuthi;-inkscape-font-specification:Dyuthi" /></flowRegion><flowPara
         id="flowPara3401">complete public source code</flowPara></flowRoot>    <flowRoot
       transform="matrix(0.9060289,0,0,0.9060289,847.52585,313.68088)"
       style="font-size:72px;font-style:normal;font-variant:normal;font-weight:normal;font-stretch:normal;text-align:start;line-height:125%;writing-mode:lr-tb;text-anchor:start;fill:#000000;fill-opacity:1;stroke:none;stroke-width:1px;stroke-linecap:butt;stroke-linejoin:miter;stroke-opacity:1;font-family:Dyuthi;-inkscape-font-specification:Dyuthi"
       id="flowRoot3405"
       xml:space="preserve"><flowRegion
         id="flowRegion3407"><rect
           style="font-size:72px;font-style:normal;font-variant:normal;font-weight:normal;font-stretch:normal;text-align:start;line-height:125%;writing-mode:lr-tb;text-anchor:start;fill:#000000;fill-opacity:1;font-family:Dyuthi;-inkscape-font-specification:Dyuthi"
           y="52.843498"
           x="-741.43127"
           height="360.228"
           width="919.26538"
           id="rect3409" /></flowRegion><flowPara
         id="flowPara3411">licensed under the gnu agpl</flowPara></flowRoot>    <flowRoot
       transform="matrix(0.9060289,0,0,0.9060289,845.52585,367.68088)"
       style="font-size:72px;font-style:normal;font-variant:normal;font-weight:normal;font-stretch:normal;text-align:start;line-height:125%;writing-mode:lr-tb;text-anchor:start;fill:#000000;fill-opacity:1;stroke:none;stroke-width:1px;stroke-linecap:butt;stroke-linejoin:miter;stroke-opacity:1;font-family:Dyuthi;-inkscape-font-specification:Dyuthi"
       id="flowRoot3413"
       xml:space="preserve"><flowRegion
         id="flowRegion3415"><rect
           style="font-size:72px;font-style:normal;font-variant:normal;font-weight:normal;font-stretch:normal;text-align:start;line-height:125%;writing-mode:lr-tb;text-anchor:start;fill:#000000;fill-opacity:1;font-family:Dyuthi;-inkscape-font-specification:Dyuthi"
           y="52.843498"
           x="-741.43127"
           height="360.228"
           width="919.26538"
           id="rect3417" /></flowRegion><flowPara
         id="flowPara3419">you own your data...</flowPara></flowRoot>    <flowRoot
       xml:space="preserve"
       id="flowRoot3429"
       style="font-size:72px;font-style:normal;font-variant:normal;font-weight:normal;font-stretch:normal;text-align:start;line-height:125%;writing-mode:lr-tb;text-anchor:start;fill:#000000;fill-opacity:1;stroke:none;stroke-width:1px;stroke-linecap:butt;stroke-linejoin:miter;stroke-opacity:1;font-family:Dyuthi;-inkscape-font-specification:Dyuthi"
       transform="matrix(0.9060289,0,0,0.9060289,845.52585,415.68088)"><flowRegion
         id="flowRegion3431"><rect
           id="rect3433"
           width="919.26538"
           height="360.228"
           x="-741.43127"
           y="52.843498"
           style="font-size:72px;font-style:normal;font-variant:normal;font-weight:normal;font-stretch:normal;text-align:start;line-height:125%;writing-mode:lr-tb;text-anchor:start;fill:#000000;fill-opacity:1;font-family:Dyuthi;-inkscape-font-specification:Dyuthi" /></flowRegion><flowPara
         id="flowPara3435">use our service, or run your own</flowPara></flowRoot>    <flowRoot
       transform="matrix(0.9060289,0,0,0.9060289,845.52585,459.68088)"
       style="font-size:72px;font-style:normal;font-variant:normal;font-weight:normal;font-stretch:normal;text-align:start;line-height:125%;writing-mode:lr-tb;text-anchor:start;fill:#000000;fill-opacity:1;stroke:none;stroke-width:1px;stroke-linecap:butt;stroke-linejoin:miter;stroke-opacity:1;font-family:Dyuthi;-inkscape-font-specification:Dyuthi"
       id="flowRoot3437"
       xml:space="preserve"><flowRegion
         id="flowRegion3439"><rect
           style="font-size:72px;font-style:normal;font-variant:normal;font-weight:normal;font-stretch:normal;text-align:start;line-height:125%;writing-mode:lr-tb;text-anchor:start;fill:#000000;fill-opacity:1;font-family:Dyuthi;-inkscape-font-specification:Dyuthi"
           y="52.843498"
           x="-741.43127"
           height="360.228"
           width="919.26538"
           id="rect3441" /></flowRegion><flowPara
         id="flowPara3443">get started and hacking today!</flowPara></flowRoot>    <path
       sodipodi:nodetypes="cs"
       id="path3447"
       d="M 718.72992,583.13248 C 723.2645,660.10452 691.69089,704.35351 618.41326,710.80823"
       style="fill:none;fill-rule:evenodd;stroke:#000000;stroke-width:5;stroke-linecap:butt;stroke-linejoin:miter;stroke-miterlimit:4;stroke-dasharray:none;stroke-opacity:1" />
    <path
       sodipodi:nodetypes="cccc"
       id="path3449"
       d="M 622.06114,674.38312 L 591.10787,705.33639 L 622.06114,736.28966 L 622.06114,674.38312 z"
       style="fill:#000000;fill-opacity:1;stroke:none;stroke-width:5;stroke-linecap:round;stroke-linejoin:miter;stroke-miterlimit:4;stroke-opacity:0.91747568" />
    <flowRoot
       xml:space="preserve"
       id="flowRoot3451"
       style="font-size:72px;font-style:normal;font-variant:normal;font-weight:normal;font-stretch:normal;text-align:start;line-height:125%;writing-mode:lr-tb;text-anchor:start;fill:#980101;fill-opacity:1;stroke:none;stroke-width:1px;stroke-linecap:butt;stroke-linejoin:miter;stroke-opacity:1;font-family:Dyuthi;-inkscape-font-specification:Dyuthi"
       transform="matrix(1.9660961,0,0,1.9660961,1580.991,236.40899)"><flowRegion
         id="flowRegion3453"><rect
           id="rect3455"
           width="919.26538"
           height="360.228"
           x="-741.43127"
           y="52.843498"
           style="font-size:72px;font-style:normal;font-variant:normal;font-weight:normal;font-stretch:normal;text-align:start;line-height:125%;writing-mode:lr-tb;text-anchor:start;fill:#980101;fill-opacity:1;font-family:Dyuthi;-inkscape-font-specification:Dyuthi" /></flowRegion><flowPara
         id="flowPara3457">*</flowPara></flowRoot>    <flowRoot
       transform="matrix(1.9660961,0,0,1.9660961,1580.991,304.40899)"
       style="font-size:72px;font-style:normal;font-variant:normal;font-weight:normal;font-stretch:normal;text-align:start;line-height:125%;writing-mode:lr-tb;text-anchor:start;fill:#980101;fill-opacity:1;stroke:none;stroke-width:1px;stroke-linecap:butt;stroke-linejoin:miter;stroke-opacity:1;font-family:Dyuthi;-inkscape-font-specification:Dyuthi"
       id="flowRoot3459"
       xml:space="preserve"><flowRegion
         id="flowRegion3461"><rect
           style="font-size:72px;font-style:normal;font-variant:normal;font-weight:normal;font-stretch:normal;text-align:start;line-height:125%;writing-mode:lr-tb;text-anchor:start;fill:#980101;fill-opacity:1;font-family:Dyuthi;-inkscape-font-specification:Dyuthi"
           y="52.843498"
           x="-741.43127"
           height="360.228"
           width="919.26538"
           id="rect3463" /></flowRegion><flowPara
         id="flowPara3465">*</flowPara></flowRoot>    <flowRoot
       xml:space="preserve"
       id="flowRoot3467"
       style="font-size:72px;font-style:normal;font-variant:normal;font-weight:normal;font-stretch:normal;text-align:start;line-height:125%;writing-mode:lr-tb;text-anchor:start;fill:#980101;fill-opacity:1;stroke:none;stroke-width:1px;stroke-linecap:butt;stroke-linejoin:miter;stroke-opacity:1;font-family:Dyuthi;-inkscape-font-specification:Dyuthi"
       transform="matrix(1.9660961,0,0,1.9660961,1580.991,352.40899)"><flowRegion
         id="flowRegion3469"><rect
           id="rect3471"
           width="919.26538"
           height="360.228"
           x="-741.43127"
           y="52.843498"
           style="font-size:72px;font-style:normal;font-variant:normal;font-weight:normal;font-stretch:normal;text-align:start;line-height:125%;writing-mode:lr-tb;text-anchor:start;fill:#980101;fill-opacity:1;font-family:Dyuthi;-inkscape-font-specification:Dyuthi" /></flowRegion><flowPara
         id="flowPara3473">*</flowPara></flowRoot>    <flowRoot
       transform="matrix(1.9660961,0,0,1.9660961,1580.991,396.40899)"
       style="font-size:72px;font-style:normal;font-variant:normal;font-weight:normal;font-stretch:normal;text-align:start;line-height:125%;writing-mode:lr-tb;text-anchor:start;fill:#980101;fill-opacity:1;stroke:none;stroke-width:1px;stroke-linecap:butt;stroke-linejoin:miter;stroke-opacity:1;font-family:Dyuthi;-inkscape-font-specification:Dyuthi"
       id="flowRoot3475"
       xml:space="preserve"><flowRegion
         id="flowRegion3477"><rect
           style="font-size:72px;font-style:normal;font-variant:normal;font-weight:normal;font-stretch:normal;text-align:start;line-height:125%;writing-mode:lr-tb;text-anchor:start;fill:#980101;fill-opacity:1;font-family:Dyuthi;-inkscape-font-specification:Dyuthi"
           y="52.843498"
           x="-741.43127"
           height="360.228"
           width="919.26538"
           id="rect3479" /></flowRegion><flowPara
         id="flowPara3481">*</flowPara></flowRoot>    <path
       style="fill:#980101;fill-rule:evenodd;stroke:#980101;stroke-width:3;stroke-linecap:butt;stroke-linejoin:miter;stroke-miterlimit:4;stroke-dasharray:none;stroke-opacity:1"
       d="M 537.49151,523.85446 L 785.54724,521.11855"
       id="path3483" />
    <g
       id="g3502"
       transform="matrix(0.7179958,0,0,0.7179958,805.5398,174.04908)">
      <rect
         style="fill:#980101;fill-opacity:1;stroke:none;stroke-width:99.74900055;stroke-linecap:round;stroke-linejoin:miter;stroke-miterlimit:4;stroke-dasharray:none;stroke-opacity:0.91747568"
         id="rect3487"
         width="402.87415"
         height="77.613274"
         x="-745.98541"
         y="603.72382"
         rx="20"
         ry="20" />
      <flowRoot
         xml:space="preserve"
         id="flowRoot3489"
         style="font-size:72px;font-style:normal;font-variant:normal;font-weight:normal;font-stretch:normal;text-align:start;line-height:125%;writing-mode:lr-tb;text-anchor:start;fill:#ffffff;fill-opacity:1;stroke:none;stroke-width:1px;stroke-linecap:butt;stroke-linejoin:miter;stroke-opacity:1;font-family:Dyuthi;-inkscape-font-specification:Dyuthi"
         transform="matrix(1.6127017,0,0,1.6127017,459.94018,482.75717)"><flowRegion
           id="flowRegion3491"><rect
             id="rect3493"
             width="919.26538"
             height="360.228"
             x="-741.43127"
             y="52.843498"
             style="font-size:72px;font-style:normal;font-variant:normal;font-weight:normal;font-stretch:normal;text-align:start;line-height:125%;writing-mode:lr-tb;text-anchor:start;fill:#ffffff;fill-opacity:1;font-family:Dyuthi;-inkscape-font-specification:Dyuthi" /></flowRegion><flowPara
           id="flowPara3495">source code</flowPara></flowRoot>    </g>
    <g
       transform="matrix(0.7179958,0,0,0.7179958,805.5398,244.66518)"
       id="g3509">
      <rect
         ry="20"
         rx="20"
         y="603.72382"
         x="-745.98541"
         height="77.613274"
         width="402.87415"
         id="rect3511"
         style="fill:#980101;fill-opacity:1;stroke:none;stroke-width:99.74900055;stroke-linecap:round;stroke-linejoin:miter;stroke-miterlimit:4;stroke-dasharray:none;stroke-opacity:0.91747568" />
      <flowRoot
         transform="matrix(1.6127017,0,0,1.6127017,459.94018,482.75717)"
         style="font-size:72px;font-style:normal;font-variant:normal;font-weight:normal;font-stretch:normal;text-align:start;line-height:125%;writing-mode:lr-tb;text-anchor:start;fill:#ffffff;fill-opacity:1;stroke:none;stroke-width:1px;stroke-linecap:butt;stroke-linejoin:miter;stroke-opacity:1;font-family:Dyuthi;-inkscape-font-specification:Dyuthi"
         id="flowRoot3513"
         xml:space="preserve"><flowRegion
           id="flowRegion3515"><rect
             style="font-size:72px;font-style:normal;font-variant:normal;font-weight:normal;font-stretch:normal;text-align:start;line-height:125%;writing-mode:lr-tb;text-anchor:start;fill:#ffffff;fill-opacity:1;font-family:Dyuthi;-inkscape-font-specification:Dyuthi"
             y="52.843498"
             x="-741.43127"
             height="360.228"
             width="919.26538"
             id="rect3517" /></flowRegion><flowPara
           id="flowPara3519">mailing list</flowPara></flowRoot>    </g>
    <text
       xml:space="preserve"
       style="font-size:22.37654114px;font-style:normal;font-variant:normal;font-weight:normal;font-stretch:normal;text-align:start;line-height:125%;writing-mode:lr-tb;text-anchor:start;fill:#000000;fill-opacity:1;stroke:none;stroke-width:1px;stroke-linecap:butt;stroke-linejoin:miter;stroke-opacity:1;font-family:Dyuthi;-inkscape-font-specification:Dyuthi"
       id="text3583"
       sodipodi:linespacing="125%"
       transform="translate(-14.640087,10.466313)"><textPath
         xlink:href="#path3374"
         id="textPath3589"><tspan
   id="tspan3585"><tspan
     id="tspan3587"
     y="427.65344"
     x="-873.70544">sounds familiar... but wait...</tspan></tspan></textPath></text>
    <text
       xml:space="preserve"
       style="font-size:22.37654114px;font-style:normal;font-variant:normal;font-weight:normal;font-stretch:normal;text-align:start;line-height:125%;writing-mode:lr-tb;text-anchor:start;fill:#000000;fill-opacity:1;stroke:none;stroke-width:1px;stroke-linecap:butt;stroke-linejoin:miter;stroke-opacity:1;font-family:Dyuthi;-inkscape-font-specification:Dyuthi"
       id="text3595"
       sodipodi:linespacing="125%"
       transform="translate(13.356,3.9529022)"><textPath
         xlink:href="#path3447"
         id="textPath3601"><tspan
   id="tspan3597"><tspan
     id="tspan3599"
     y="648.3501"
     x="-55.668697">how very web twenty!</tspan></tspan></textPath></text>
    <g
       id="g5581"
       transform="translate(7.7383187,-12.897198)">
      <text
         id="text3843"
         y="750.11084"
         x="-9.7767696"
         style="font-size:32.83162689px;font-style:normal;font-variant:normal;font-weight:normal;font-stretch:normal;fill:#aaaaaa;fill-opacity:1;stroke:none;stroke-width:1px;stroke-linecap:butt;stroke-linejoin:miter;stroke-opacity:1;font-family:Liberation Sans;-inkscape-font-specification:Liberation Sans"
         xml:space="preserve"><tspan
           style="font-style:normal;font-variant:normal;font-weight:normal;font-stretch:normal;fill:#aaaaaa;font-family:Liberation Serif;-inkscape-font-specification:Liberation Serif"
           y="750.11084"
           x="-9.7767696"
           id="tspan3845"
           sodipodi:role="line">autonomo.us</tspan></text>
      <g
         style="fill:#aaaaaa"
         transform="matrix(0.3247657,0,0,0.3247657,-41.469835,1121.8685)"
         id="g3647">
        <g
           style="fill:#aaaaaa"
           transform="translate(-52.746502,-515.35803)"
           id="g3614">
          <path
             style="fill:#aaaaaa;fill-opacity:1;stroke:none;stroke-width:2.48000002;stroke-miterlimit:4;stroke-dasharray:none;stroke-opacity:1"
             d="M 399.21875,-696.4375 C 365.8223,-696.43751 338.6875,-669.3027 338.6875,-635.90625 C 338.68749,-602.50979 365.8223,-575.375 399.21875,-575.375 C 432.6152,-575.37501 459.71875,-602.50979 459.71875,-635.90625 C 459.71874,-669.30269 432.61521,-696.4375 399.21875,-696.4375 z M 399.21875,-681.84375 C 424.59469,-681.84376 445.15625,-661.28218 445.15625,-635.90625 C 445.15624,-610.5303 424.59469,-589.9375 399.21875,-589.9375 C 373.84281,-589.93751 353.25,-610.53031 353.25,-635.90625 C 353.24999,-661.28218 373.84282,-681.84375 399.21875,-681.84375 z"
             id="path3616"
             transform="translate(61.97281,179.10071)" />
          <path
             sodipodi:nodetypes="cccsssccssc"
             id="path3618"
             style="fill:#aaaaaa"
             d="M 460.73987,-490.07749 C 444.97307,-490.07749 431.76259,-479.09604 428.33708,-464.36699 L 445.43681,-464.36699 C 448.30544,-470.61439 453.41906,-474.95366 460.73987,-474.95366 C 470.75789,-474.95366 477.68781,-466.8231 477.68781,-456.80508 C 477.68781,-446.78706 470.75789,-439.85765 460.73987,-439.85765 C 453.41905,-439.85765 448.30544,-442.99576 445.43681,-449.24316 L 428.33708,-449.24316 C 431.76259,-434.5141 444.97307,-423.53267 460.73987,-423.53267 C 479.10624,-423.53267 494.01228,-438.43871 494.01228,-456.80508 C 494.01228,-475.17145 479.10624,-490.07749 460.73987,-490.07749 z" />
        </g>
        <path
           style="font-size:90px;font-style:normal;font-variant:normal;font-weight:bold;font-stretch:normal;text-align:start;line-height:125%;writing-mode:lr-tb;text-anchor:start;fill:#aaaaaa;fill-opacity:1;stroke:none;stroke-width:1px;stroke-linecap:butt;stroke-linejoin:miter;stroke-opacity:1;font-family:Futura BT;-inkscape-font-specification:Futura BT Bold"
           d="M 230.36358,-1005.9136 C 225.76395,-1005.9135 221.36356,-1005.0483 217.14484,-1003.3199 C 212.95536,-1001.6206 209.24442,-999.20258 206.05108,-996.03858 C 202.74053,-992.84517 200.21709,-989.20454 198.48858,-985.13233 C 196.78936,-981.08932 195.95733,-976.76314 195.95733,-972.16358 C 195.95733,-967.59324 196.78936,-963.29831 198.48858,-959.22608 C 200.21709,-955.15379 202.74053,-951.5132 206.05108,-948.31983 C 209.24442,-945.15577 212.95536,-942.70462 217.14484,-940.97608 C 221.36356,-939.27686 225.76395,-938.41361 230.36358,-938.41358 C 234.90456,-938.41358 239.26978,-939.27689 243.48858,-940.97608 C 247.70728,-942.70459 251.45728,-945.15579 254.73858,-948.31983 C 257.99047,-951.51318 260.4768,-955.12059 262.17608,-959.16358 C 263.87522,-963.20652 264.73851,-967.53463 264.73858,-972.16358 C 264.73851,-976.76315 263.87327,-981.12251 262.14483,-985.19483 C 260.44554,-989.26705 257.96118,-992.87446 254.73858,-996.03858 C 251.51587,-999.20259 247.79908,-1001.6206 243.55109,-1003.3199 C 239.3323,-1005.0483 234.93385,-1005.9135 230.36358,-1005.9136 z M 230.36358,-991.06983 C 235.13893,-991.06978 239.14089,-989.26704 242.36358,-985.66358 C 245.58618,-982.06002 247.17603,-977.55416 247.17608,-972.16358 C 247.17603,-966.71433 245.58814,-962.20652 242.39483,-958.63233 C 239.23072,-955.0581 235.22682,-953.28856 230.36358,-953.28858 C 225.41237,-953.28857 221.37333,-955.05614 218.23858,-958.60108 C 215.1038,-962.14598 213.51981,-966.65573 213.51983,-972.16358 C 213.51981,-977.58346 215.10575,-982.08931 218.26984,-985.66358 C 221.46316,-989.26705 225.50026,-991.06977 230.36358,-991.06983 z"
           id="path3620" />
        <path
           style="font-size:90px;font-style:normal;font-variant:normal;font-weight:bold;font-stretch:normal;text-align:start;line-height:125%;writing-mode:lr-tb;text-anchor:start;fill:#aaaaaa;fill-opacity:1;stroke:none;stroke-width:1px;stroke-linecap:butt;stroke-linejoin:miter;stroke-opacity:1;font-family:Futura BT;-inkscape-font-specification:Futura BT Bold"
           d="M 306.35744,-1005.9136 C 301.75779,-1005.9135 297.32616,-1005.0483 293.10744,-1003.3199 C 288.91796,-1001.6206 285.23829,-999.20258 282.04494,-996.03858 C 278.73438,-992.84517 276.21095,-989.20454 274.48244,-985.13233 C 272.78323,-981.08932 271.95119,-976.76314 271.95119,-972.16358 C 271.95119,-967.59324 272.78322,-963.29831 274.48244,-959.22608 C 276.21096,-955.15379 278.73438,-951.5132 282.04494,-948.31983 C 285.23829,-945.15577 288.91796,-942.70462 293.10744,-940.97608 C 297.32616,-939.27686 301.75779,-938.41361 306.35744,-938.41358 C 310.89842,-938.41358 315.26364,-939.27689 319.48244,-940.97608 C 323.70114,-942.70459 327.45114,-945.15579 330.73244,-948.31983 C 333.98433,-951.51318 336.47066,-955.12059 338.16994,-959.16358 C 339.8691,-963.20652 340.70112,-967.53463 340.70119,-972.16358 C 340.70112,-976.76315 339.83588,-981.12251 338.10744,-985.19483 C 336.40815,-989.26705 333.95502,-992.87446 330.73244,-996.03858 C 327.50974,-999.20259 323.76169,-1001.6206 319.51369,-1003.3199 C 315.29489,-1005.0483 310.92772,-1005.9135 306.35744,-1005.9136 z M 306.35744,-991.06983 C 311.13278,-991.06978 315.13473,-989.26704 318.35744,-985.66358 C 321.58005,-982.06002 323.16989,-977.55416 323.16994,-972.16358 C 323.16989,-966.71433 321.582,-962.20652 318.38869,-958.63233 C 315.22458,-955.0581 311.22068,-953.28856 306.35744,-953.28858 C 301.40623,-953.28857 297.33593,-955.05614 294.20119,-958.60108 C 291.06641,-962.14598 289.51368,-966.65573 289.51369,-972.16358 C 289.51368,-977.58346 291.0996,-982.08931 294.26369,-985.66358 C 297.45703,-989.26705 301.49412,-991.06977 306.35744,-991.06983 z"
           id="path3622" />
        <path
           style="font-size:90px;font-style:normal;font-variant:normal;font-weight:bold;font-stretch:normal;text-align:start;line-height:125%;writing-mode:lr-tb;text-anchor:start;fill:#aaaaaa;fill-opacity:1;stroke:none;stroke-width:1px;stroke-linecap:butt;stroke-linejoin:miter;stroke-opacity:1;font-family:Futura BT;-inkscape-font-specification:Futura BT Bold"
           d="M 510.56392,-1005.9136 C 505.96427,-1005.9135 501.53264,-1005.0483 497.31391,-1003.3199 C 493.12444,-1001.6206 489.44476,-999.20258 486.25142,-996.03858 C 482.94085,-992.84517 480.41741,-989.20454 478.68892,-985.13233 C 476.9897,-981.08932 476.15766,-976.76314 476.15767,-972.16358 C 476.15766,-967.59324 476.98969,-963.29831 478.68892,-959.22608 C 480.41743,-955.15379 482.94085,-951.5132 486.25142,-948.31983 C 489.44476,-945.15577 493.12444,-942.70462 497.31391,-940.97608 C 501.53264,-939.27686 505.96427,-938.41361 510.56392,-938.41358 C 515.10489,-938.41358 519.47012,-939.27689 523.68891,-940.97608 C 527.90762,-942.70459 531.65761,-945.15579 534.93892,-948.31983 C 538.1908,-951.51318 540.67714,-955.12059 542.37641,-959.16358 C 544.07557,-963.20652 544.9076,-967.53463 544.90767,-972.16358 C 544.9076,-976.76315 544.04236,-981.12251 542.31392,-985.19483 C 540.61463,-989.26705 538.16149,-992.87446 534.93892,-996.03858 C 531.7162,-999.20259 527.96816,-1001.6206 523.72017,-1003.3199 C 519.50137,-1005.0483 515.13418,-1005.9135 510.56392,-1005.9136 z M 510.56392,-991.06983 C 515.33926,-991.06978 519.3412,-989.26704 522.56392,-985.66358 C 525.78651,-982.06002 527.37636,-977.55416 527.37641,-972.16358 C 527.37636,-966.71433 525.78848,-962.20652 522.59517,-958.63233 C 519.43105,-955.0581 515.42715,-953.28856 510.56392,-953.28858 C 505.61271,-953.28857 501.54241,-955.05614 498.40767,-958.60108 C 495.27287,-962.14598 493.72014,-966.65573 493.72017,-972.16358 C 493.72014,-977.58346 495.30607,-982.08931 498.47017,-985.66358 C 501.6635,-989.26705 505.7006,-991.06977 510.56392,-991.06983 z"
           id="path3624" />
        <path
           style="font-size:90px;font-style:normal;font-variant:normal;font-weight:bold;font-stretch:normal;text-align:start;line-height:125%;writing-mode:lr-tb;text-anchor:start;fill:#aaaaaa;fill-opacity:1;stroke:none;stroke-width:1px;stroke-linecap:butt;stroke-linejoin:miter;stroke-opacity:1;font-family:Futura BT;-inkscape-font-specification:Futura BT Bold"
           d="M 552.12026,-1004.3355 L 552.12026,-939.99168 L 568.55776,-939.99168 L 568.55776,-965.1792 L 583.33901,-939.99168 L 603.1515,-939.99168 L 585.62026,-965.9292 C 590.30772,-966.95456 593.8761,-969.01119 596.30776,-972.1167 C 598.76865,-975.25142 599.99517,-979.32368 599.99526,-984.3042 C 599.9952,-987.5854 599.34875,-990.57953 598.08901,-993.3042 C 596.85848,-996.02875 595.09087,-998.26506 592.77651,-1000.023 C 590.72567,-1001.5757 588.27453,-1002.6909 585.43276,-1003.3355 C 582.62021,-1004.0093 577.64167,-1004.3354 570.46401,-1004.3355 L 552.12026,-1004.3355 z M 568.55776,-990.83544 L 572.08901,-990.83544 C 575.92686,-990.8354 578.63392,-990.14985 580.24526,-988.77295 C 581.88585,-987.42524 582.71399,-985.1518 582.71401,-981.9292 C 582.71396,-979.17526 581.84681,-977.15572 580.08901,-975.8667 C 578.36046,-974.5776 575.58706,-973.92916 571.80776,-973.9292 L 568.55776,-973.9292 L 568.55776,-990.83544 z"
           id="path3626" />
        <path
           style="font-size:90px;font-style:normal;font-variant:normal;font-weight:bold;font-stretch:normal;text-align:start;line-height:125%;writing-mode:lr-tb;text-anchor:start;fill:#aaaaaa;fill-opacity:1;stroke:none;stroke-width:1px;stroke-linecap:butt;stroke-linejoin:miter;stroke-opacity:1;font-family:Futura BT;-inkscape-font-specification:Futura BT Bold"
           d="M 610.3641,-1004.3354 L 610.3641,-939.9917 L 626.80159,-939.9917 L 626.80159,-961.21045 L 629.9891,-961.21045 L 632.95785,-961.21045 C 638.37773,-961.21043 642.34066,-961.53269 644.80159,-962.14795 C 647.2625,-962.76316 649.39137,-963.77292 651.20784,-965.1792 C 653.61013,-967.05417 655.4148,-969.43503 656.64535,-972.33545 C 657.87576,-975.26511 658.48908,-978.65377 658.4891,-982.49171 C 658.48905,-986.09518 657.87384,-989.37447 656.61409,-992.30421 C 655.38358,-995.26314 653.58081,-997.71625 651.20784,-999.67921 C 649.18631,-1001.3784 646.73316,-1002.5697 643.83285,-1003.2729 C 640.93242,-1003.976 635.88552,-1004.3354 628.70784,-1004.3354 L 610.3641,-1004.3354 z M 626.80159,-990.49171 L 630.33285,-990.49171 C 634.49296,-990.49166 637.37966,-989.91548 639.02035,-988.77296 C 640.66093,-987.63034 641.4891,-985.71822 641.4891,-983.02296 C 641.48907,-980.23971 640.65902,-978.25729 638.9891,-977.08546 C 637.31915,-975.94285 634.3641,-975.36667 630.14535,-975.36671 L 626.80159,-975.36671 L 626.80159,-990.49171 z"
           id="path3628" />
        <g
           style="fill:#aaaaaa"
           transform="translate(-38.603082,-515.35803)"
           id="g3630">
          <path
             id="path3632"
             d="M 147.11139,-424.63711 L 147.11139,-488.97304 L 186.53034,-488.97304 L 186.53034,-474.8666 L 164.20612,-474.8666 L 164.20612,-463.70449 L 185.25592,-463.70449 L 185.25592,-449.90566 L 164.20612,-449.90566 L 164.20612,-424.63711 L 147.11139,-424.63711"
             style="font-size:90px;font-style:normal;font-variant:normal;font-weight:bold;font-stretch:normal;text-align:start;line-height:125%;writing-mode:lr-tb;text-anchor:start;fill:#aaaaaa;fill-opacity:1;stroke:none;stroke-width:1px;stroke-linecap:butt;stroke-linejoin:miter;stroke-opacity:1;font-family:Futura BT;-inkscape-font-specification:Futura BT Bold" />
          <path
             style="fill:#aaaaaa;fill-opacity:1;stroke:none;stroke-width:2.48000002;stroke-miterlimit:4;stroke-dasharray:none;stroke-opacity:1"
             d="M 104.84375,-696.4375 C 71.4473,-696.43751 44.3125,-669.3027 44.3125,-635.90625 C 44.3125,-602.50979 71.4473,-575.375 104.84375,-575.375 C 138.24021,-575.37501 165.375,-602.50979 165.375,-635.90625 C 165.375,-669.30269 138.24021,-696.4375 104.84375,-696.4375 z M 104.84375,-681.84375 C 130.21969,-681.84376 150.8125,-661.28218 150.8125,-635.90625 C 150.8125,-610.5303 130.21969,-589.9375 104.84375,-589.9375 C 79.46782,-589.93751 58.90625,-610.53031 58.90625,-635.90625 C 58.90625,-661.28218 79.46782,-681.84375 104.84375,-681.84375 z"
             transform="translate(61.97281,179.10071)"
             id="path3634" />
        </g>
      </g>
      <g
         transform="matrix(0.7496174,0,0,0.7496174,-8.5855131,180.96329)"
         id="g5575">
        <path
           style="opacity:1;fill:#aaaaaa;fill-opacity:1;fill-rule:evenodd;stroke:none;stroke-width:1pt;stroke-linecap:butt;stroke-linejoin:miter"
           id="path3550"
           d="M 129.59357,668.2901 C 129.59357,668.2901 129.58846,668.2901 129.58846,668.2901 C 129.11183,668.2901 128.691,668.44733 128.29545,668.76682 C 128.00134,669.00002 127.79846,669.31449 127.6362,669.66438 C 127.6362,669.66438 127.65648,669.66438 127.65648,669.66438 C 127.81873,669.31449 128.02162,669.00002 128.31061,668.76682 C 128.70615,668.44733 129.12699,668.29522 129.59357,668.2901 z" />
        <path
           style="opacity:1;fill:#aaaaaa;fill-opacity:1;fill-rule:evenodd;stroke:none;stroke-width:1pt;stroke-linecap:butt;stroke-linejoin:miter"
           id="path3554"
           d="M 129.60874,668.2901 C 129.60371,668.2901 129.5986,668.2901 129.59357,668.2901 C 130.08545,668.29522 130.40997,668.46258 130.62801,668.82261 C 130.72434,668.97472 130.77501,669.20291 130.77501,669.4919 C 130.77501,669.54267 130.76488,669.60859 130.75986,669.66438 C 130.75986,669.66438 130.78012,669.66438 130.78012,669.66438 C 130.78012,669.60859 130.79026,669.54267 130.79026,669.4919 C 130.79026,669.20291 130.74461,668.97472 130.64828,668.82261 C 130.43023,668.45747 130.10062,668.2901 129.60874,668.2901 z" />
        <path
           style="opacity:1;fill:#cccccf;fill-opacity:0;fill-rule:evenodd;stroke:#cccccf;stroke-width:2.53541493;stroke-linecap:butt;stroke-linejoin:miter;stroke-miterlimit:4;stroke-opacity:0"
           d="M 142.53723,676.173 C 142.74312,676.70216 142.94891,677.23052 143.16334,677.74725 C 143.49358,678.44933 143.8752,679.12136 144.33411,679.7487 C 146.81289,683.11816 150.9641,684.96307 156.23461,685.42243 C 156.23461,685.42243 161.90402,685.42243 161.90402,685.42243 C 163.69659,685.28256 165.57499,685.02186 167.52196,684.64103 C 170.87979,683.98443 174.43927,682.97582 178.13597,681.6279 C 180.93635,680.60686 183.81393,679.3988 186.73435,677.99474 C 193.0942,674.94599 199.66417,671.01398 206.10977,666.26874 C 208.23258,664.70727 210.26953,663.10508 212.22515,661.47591 C 214.01771,659.98442 215.73738,658.46965 217.37994,656.93824 C 221.96424,652.52024 225.4251,648.03324 227.38494,644.09337 C 229.42622,639.99055 229.83366,636.48263 228.16114,634.27275 C 227.13622,632.91628 225.42078,632.18935 223.21223,632.01828 C 233.16152,624.55287 238.95952,615.4969 236.87964,609.78721 C 236.21917,607.96504 234.76539,606.60557 232.68119,605.85378 C 231.7549,605.52064 230.7128,605.30956 229.57631,605.21349 C 229.57631,605.21349 226.51435,605.21349 226.51435,605.21349 C 222.23878,605.52187 216.02118,607.05285 210.74634,609.63791"
           sodipodi:nodetypes="cccccssccccscccsccc"
           id="path5068" />
        <path
           id="path3552"
           style="opacity:1;fill:#aaaaaa;fill-opacity:1;fill-rule:evenodd;stroke:none;stroke-width:1pt;stroke-linecap:butt;stroke-linejoin:miter;stroke-opacity:1"
           d="M 3.9513636,607.19704 C 3.9513636,607.19704 -13.685593,684.14677 -13.685593,684.14677 C -13.680513,684.14677 32.709874,684.14677 32.720019,684.14677 C 53.122147,684.14677 114.31269,684.14677 114.31269,684.14677 C 114.31278,684.14677 156.74914,684.14677 156.74914,684.14677 C 151.69359,683.70557 147.70216,681.93081 145.32395,678.69567 C 144.88284,678.09724 144.51832,677.45263 144.19891,676.77822 C 143.99603,676.28132 143.80531,675.77992 143.61256,675.27289 C 143.10544,673.66029 142.90325,671.87099 142.99456,669.9643 C 143.24813,664.65006 145.7417,658.32882 150.06205,651.70932 C 154.65111,644.67462 161.30215,637.30149 169.53716,630.45945 C 171.38295,628.92706 173.2915,627.4138 175.28933,625.94318 C 177.75885,624.12639 180.2474,622.45308 182.73711,620.88825 C 191.91021,615.11308 201.06056,611.07203 209.16883,609.01939 C 201.42059,611.54716 192.71593,615.83851 184.11579,621.68058 C 183.80644,621.88946 183.50097,622.10345 183.19664,622.31444 C 178.42505,625.62062 174.10216,629.13189 170.32948,632.67788 C 158.18987,644.09232 151.77343,655.92002 154.68918,662.84931 C 154.89709,663.32594 155.14492,663.78106 155.43392,664.21213 C 158.5677,668.82146 166.33427,669.61819 176.17675,667.14365 C 176.84613,666.97637 177.51551,666.78679 178.20507,666.58902 C 181.34899,665.68141 184.6869,664.45547 188.12493,662.94441 C 188.95145,662.57927 189.78688,662.20408 190.62865,661.80342 C 190.71484,661.76288 190.79593,661.72234 190.88212,661.67669 C 201.73373,656.28489 210.07335,650.08087 211.87851,646.35331 C 212.27407,645.54248 212.36915,644.85116 212.10035,644.30912 C 210.81235,641.69762 201.79966,643.4619 190.88212,648.19144 C 190.00492,648.57182 189.1175,648.96315 188.21994,649.37993 C 188.95013,648.70201 189.7102,648.02143 190.48596,647.35161 C 191.72327,646.28572 193.0043,645.24344 194.36835,644.21403 C 196.50314,642.59747 198.66137,641.13603 200.78612,639.84046 C 210.73506,632.3346 215.76471,625.2345 214.71502,622.59964 C 214.51725,622.10318 214.09642,621.76175 213.4473,621.55375 C 211.37333,620.89407 207.58796,621.68146 202.98877,623.56629 C 199.19573,625.12205 194.83926,627.42931 190.42259,630.30098 C 190.42259,630.30098 189.82046,630.69715 189.82046,630.69715 C 189.82046,630.69715 189.70949,630.76052 189.70949,630.76052 C 189.70949,630.76052 187.58617,632.17084 187.58617,632.17084 C 187.58617,632.17084 188.8063,629.93655 188.8063,629.93655 C 190.61657,626.6227 193.56528,623.1652 197.23651,619.95332 C 199.9291,617.60498 203.00525,615.39238 206.31645,613.45633 C 207.56892,612.72305 208.81955,612.04204 210.07203,611.42801 C 211.35499,610.8012 212.6385,610.24419 213.89097,609.74826 C 217.52985,608.3092 221.52728,606.49188 224.55654,606.25409 C 224.28067,606.25409 215.52322,607.19704 215.52322,607.19704 C 215.52322,607.19704 186.84134,607.19704 186.84134,607.19704 C 186.84134,607.19704 60.371891,607.19704 60.371891,607.19704 C 60.371891,607.19704 3.9513636,607.19704 3.9513636,607.19704 z M 141.33068,607.308 C 140.83377,614.89239 142.3043,626.00127 145.64088,638.33504 C 146.2342,640.52967 146.88005,642.76316 147.58997,645.02222 C 148.03117,646.41721 148.4863,647.79034 148.95279,649.14223 C 148.67896,649.54483 148.40328,649.94496 148.1446,650.34659 C 143.98149,656.72663 141.5481,662.75615 140.93452,667.99935 C 139.17491,662.10704 137.85026,655.65306 137.0997,648.80944 C 136.88677,646.84862 136.72011,644.90967 136.60854,642.9939 C 135.78703,629.07804 137.60366,616.46329 141.33068,607.308 z M 58.248474,617.18018 C 58.343393,617.17798 58.436993,617.18018 58.533681,617.18018 C 58.533681,617.18018 77.279917,617.18018 77.279917,617.18018 C 78.882287,617.18018 80.121455,617.48054 81.003766,618.08347 C 81.880967,618.68992 82.209974,619.4744 82.00206,620.42872 C 82.00206,620.42872 79.767772,630.52282 79.767772,630.52282 C 79.767772,630.52282 73.159821,630.52282 73.159821,630.52282 C 73.159821,630.52282 75.330744,620.69814 75.330744,620.69814 C 75.330744,620.69814 58.78724,620.69814 58.78724,620.69814 C 58.78724,620.69814 52.813152,647.70018 52.813152,647.70018 C 52.813152,647.70018 50.658002,657.47744 50.658002,657.47744 C 50.658002,657.47744 67.185725,657.47744 67.185725,657.47744 C 67.185725,657.47744 67.201591,657.41407 67.201591,657.41407 C 67.201591,657.41407 70.513496,642.45505 70.513496,642.45505 C 70.513496,642.45505 62.748789,642.45505 62.748789,642.45505 C 62.748789,642.45505 63.493609,639.07986 63.493609,639.07986 C 63.493609,639.07977 77.86619,639.07986 77.86619,639.07986 C 77.86619,639.07977 73.746178,657.74678 73.746178,657.74678 C 73.690387,658.0125 73.592734,658.2532 73.460886,658.4916 C 73.121124,659.11021 72.528513,659.64007 71.701992,660.07625 C 70.555984,660.67962 69.18435,660.97945 67.581888,660.97945 C 67.581888,660.97945 48.851602,660.97945 48.851602,660.97945 C 47.249232,660.97945 46.010065,660.67962 45.127668,660.07625 C 44.250468,659.4728 43.916396,658.70215 44.129375,657.74678 C 44.129375,657.74678 52.385349,620.42872 52.385349,620.42872 C 52.598282,619.4744 53.26255,618.68992 54.413576,618.08347 C 54.454211,618.06161 54.499864,618.05667 54.540406,618.03596 C 55.591054,617.50971 56.824053,617.21385 58.248474,617.18018 z M 87.627584,617.18018 C 87.627491,617.18018 111.2227,617.18018 111.2227,617.18018 C 112.8048,617.18018 114.04837,617.48054 114.93078,618.08347 C 115.81811,618.68992 116.15787,619.4744 115.94494,620.42872 C 115.94494,620.42872 111.53963,640.33172 111.53963,640.33172 C 111.33173,641.27996 110.65159,642.0536 109.49545,642.66111 C 108.3393,643.27064 106.97842,643.58017 105.39121,643.58017 C 105.39121,643.58017 88.245488,643.58017 88.245488,643.58017 C 88.245488,643.58017 84.933668,658.52324 84.933668,658.52324 C 84.933668,658.52324 84.394902,660.97945 84.394902,660.97945 C 84.394902,660.97945 77.929554,660.97945 77.929554,660.97945 C 77.929554,660.97945 78.420814,658.76094 78.420814,658.76094 C 78.420814,658.76094 87.627584,617.18018 87.627584,617.18018 z M 120.22341,617.18018 C 120.22341,617.18018 126.68867,617.18018 126.68867,617.18018 C 126.68867,617.18018 119.36771,650.25149 119.36771,650.25149 C 119.36771,650.25149 117.76719,657.47744 117.76719,657.47744 C 117.76719,657.47744 133.23326,657.47744 133.23326,657.47744 C 133.39551,658.66346 133.585,659.82842 133.78788,660.97945 C 133.78788,660.97945 110.52547,660.97945 110.52547,660.97945 C 110.52547,660.97945 112.3636,652.67598 112.3636,652.67598 C 112.3636,652.67598 120.22341,617.18018 120.22341,617.18018 z M 93.31638,620.69814 C 93.31638,620.69814 89.021955,640.06229 89.021955,640.06229 C 89.021955,640.06229 105.13773,640.06229 105.13773,640.06229 C 105.13773,640.06229 109.41622,620.69814 109.41622,620.69814 C 109.41622,620.69814 93.31638,620.69814 93.31638,620.69814 z M 58.951786,666.40094 C 59.015066,666.39874 59.07826,666.40094 59.14198,666.40094 C 59.892443,666.40094 60.547894,666.5327 61.075203,666.78124 C 61.638119,667.04494 62.040629,667.43661 62.263698,667.95387 C 62.481742,668.45588 62.53876,669.02567 62.42216,669.64939 C 62.42216,669.64939 62.374654,669.88709 62.374654,669.88709 C 62.374654,669.88709 60.520663,669.88709 60.520663,669.88709 C 60.520578,669.88709 60.536437,669.66526 60.536437,669.66526 C 60.584383,669.22943 60.53036,668.88677 60.362201,668.6511 C 60.340251,668.62157 60.308441,668.58253 60.282877,668.556 C 60.2411,668.51326 60.17826,668.46452 60.1245,668.42926 C 59.865035,668.26578 59.459267,668.17571 58.936012,668.17571 C 58.241247,668.17571 57.722138,668.29671 57.36722,668.54014 C 57.022354,668.77845 56.804311,669.04471 56.733357,669.36419 C 56.662325,669.6887 56.778925,669.85924 56.860094,669.95046 C 56.862649,669.95301 56.872879,669.96351 56.87596,669.96632 C 56.978724,670.05384 57.335495,670.2592 58.444752,670.52096 C 59.448775,670.76438 60.11366,670.98304 60.488938,671.17068 C 61.056873,671.45967 61.453654,671.83433 61.66156,672.29571 C 61.869474,672.75216 61.915127,673.28643 61.788297,673.8645 C 61.66156,674.42742 61.374423,674.94653 60.948465,675.43329 C 60.527627,675.92006 59.992034,676.30547 59.347948,676.57428 C 58.709067,676.83797 58.008048,676.98622 57.287989,676.98622 C 56.37518,676.98622 55.642436,676.84811 55.069475,676.57428 C 54.471127,676.29031 54.039449,675.84215 53.785974,675.25897 C 53.542545,674.69111 53.490553,674.04641 53.62742,673.3416 C 53.62742,673.3416 53.675011,673.11977 53.675011,673.11977 C 53.675011,673.11977 55.497362,673.11977 55.497362,673.11977 C 55.497362,673.11977 55.481504,673.3416 55.481504,673.3416 C 55.435851,673.76244 55.480886,674.1022 55.592375,674.35576 C 55.69893,674.59919 55.901725,674.80075 56.226238,674.95789 C 56.571104,675.12526 57.002079,675.21146 57.493957,675.21146 C 57.935155,675.21146 58.338282,675.13734 58.698311,675.00549 C 59.05323,674.87866 59.335348,674.71138 59.538143,674.49836 C 59.735919,674.28543 59.851901,674.06034 59.902581,673.817 C 59.953345,673.59895 59.94127,673.41449 59.855075,673.26237 C 59.758742,673.10012 59.56793,672.95619 59.268717,672.83457 C 59.268717,672.83448 57.715792,672.37495 57.715792,672.37495 C 56.848729,672.1569 56.264927,671.94899 55.925173,671.74108 C 55.4637,671.46734 55.130994,671.11612 54.958511,670.69528 C 54.786121,670.27946 54.767792,669.81861 54.879365,669.3166 C 54.995973,668.77907 55.255176,668.26763 55.655832,667.81127 C 56.061514,667.34979 56.585032,666.98783 57.208758,666.74952 C 57.760209,666.54275 58.34049,666.42147 58.951786,666.40094 z M 75.590472,666.43258 C 75.690765,666.42483 75.785075,666.43258 75.891537,666.43258 C 75.891537,666.43258 77.032434,666.55932 77.032434,666.55932 C 77.032434,666.55932 77.412738,666.59105 77.412738,666.59105 C 77.412823,666.59105 76.858191,668.00137 76.858191,668.00137 C 76.858191,668.00137 76.747235,668.2232 76.747235,668.2232 C 76.747235,668.2232 75.875671,668.14397 75.875671,668.14397 C 75.618321,668.14397 75.429277,668.18372 75.30518,668.2708 C 75.296988,668.27697 75.281122,668.29583 75.27354,668.30244 C 75.256886,668.31707 75.228945,668.34245 75.210176,668.36589 C 75.133848,668.46593 75.040958,668.64475 74.972475,668.96803 C 74.972475,668.96803 74.939515,669.1049 74.90911,669.22159 C 75.309674,669.22159 76.271841,669.22159 76.271841,669.22159 C 76.271841,669.22159 75.92327,670.79038 75.92327,670.79038 C 75.92327,670.79038 74.926822,670.79038 74.592178,670.79038 C 74.490735,671.24674 73.245221,676.82775 73.245221,676.82775 C 73.245221,676.82775 71.407003,676.82775 71.407003,676.82775 C 71.407003,676.82775 72.601837,671.46478 72.753961,670.79038 C 72.444611,670.79038 71.692295,670.79038 71.692295,670.79038 C 71.692295,670.79038 72.040866,669.22159 72.040866,669.22159 C 72.040866,669.22159 72.797676,669.22159 73.086759,669.22159 C 73.13743,669.00355 73.213488,668.73033 73.213488,668.73033 C 73.325069,668.2232 73.441669,667.85877 73.593792,667.60521 C 73.801791,667.25531 74.09519,666.96253 74.465349,666.74952 C 74.770298,666.57236 75.155883,666.46642 75.590472,666.43258 z M 79.979909,666.51182 C 79.979909,666.51182 79.499404,668.67392 79.377778,669.22159 C 79.732696,669.22159 80.566181,669.22159 80.566181,669.22159 C 80.566181,669.22159 80.21761,670.79038 80.21761,670.79038 C 80.21761,670.79038 79.34349,670.79038 79.029114,670.79038 C 78.932789,671.22638 78.173424,674.60933 78.173424,674.60933 C 78.173424,674.60933 78.110051,675.01562 78.110051,675.13223 C 78.110144,675.1361 78.109704,675.14518 78.110051,675.14809 C 78.110314,675.14932 78.109704,675.1629 78.110051,675.16395 C 78.110492,675.16475 78.125215,675.16334 78.125833,675.16395 C 78.125833,675.16395 78.31602,675.17973 78.31602,675.17973 C 78.31602,675.17973 79.187584,675.11636 79.187584,675.11636 C 79.187584,675.11636 79.092486,676.52668 79.092486,676.52668 C 79.092486,676.52668 79.108353,676.78024 79.108353,676.78024 C 79.108353,676.78024 77.856492,676.92285 77.856492,676.92285 C 77.359588,676.92285 76.995066,676.84176 76.731369,676.66929 C 76.452516,676.48676 76.290256,676.24466 76.224335,675.94041 C 76.214198,675.88463 76.192603,675.80345 76.192603,675.68685 C 76.192603,675.45867 76.2357,675.07265 76.382797,674.40327 C 76.382797,674.40327 77.048918,671.41913 77.190904,670.79038 C 76.952586,670.79038 76.319433,670.79038 76.319433,670.79038 C 76.319433,670.79038 76.668004,669.22159 76.668004,669.22159 C 76.668004,669.22159 77.286001,669.22159 77.539561,669.22159 C 77.620729,668.85645 77.903998,667.60521 77.903998,667.60521 C 77.903998,667.60521 79.377778,666.82875 79.377778,666.82875 C 79.377778,666.82875 79.979909,666.51182 79.979909,666.51182 z M 21.586205,666.57518 C 21.586205,666.57518 28.717048,666.57518 28.717048,666.57518 C 28.717048,666.57518 28.320893,668.35003 28.320893,668.35003 C 28.320893,668.35003 23.563829,668.35003 23.107452,668.35003 C 23.026337,668.71006 22.701167,670.16789 22.584537,670.69528 C 23.243748,670.69528 27.100727,670.69528 27.100727,670.69528 C 27.100727,670.69528 26.704564,672.47005 26.704564,672.47005 C 26.704564,672.47005 22.644751,672.47005 22.188374,672.47005 C 22.092026,672.91124 21.221744,676.82775 21.221744,676.82775 C 21.221744,676.82775 19.304333,676.82775 19.304333,676.82775 C 19.304333,676.82775 21.586205,666.57518 21.586205,666.57518 z M 31.141546,669.07899 C 31.213087,669.07018 31.291268,669.07899 31.363372,669.07899 C 31.81975,669.07899 32.241283,669.2178 32.646942,669.5068 C 32.646942,669.5068 32.900485,669.68112 32.900485,669.68112 C 32.900485,669.68112 31.918005,671.29742 31.918005,671.29742 C 31.918005,671.29742 31.64861,671.10722 31.64861,671.10722 C 31.450865,670.98048 31.237894,670.91712 31.01477,670.91712 C 30.822074,670.91712 30.642704,670.98559 30.460153,671.10722 C 30.267457,671.23405 30.106455,671.40203 29.984775,671.63021 C 29.771796,672.02065 29.615851,672.45797 29.509366,672.92957 C 29.509366,672.92957 28.653652,676.82775 28.653652,676.82775 C 28.653652,676.82775 26.815489,676.82775 26.815489,676.82775 C 26.815489,676.82775 28.511064,669.22159 28.511064,669.22159 C 28.511064,669.22159 30.22246,669.22159 30.22246,669.22159 C 30.22246,669.22159 30.163488,669.45224 30.143214,669.53844 C 30.224367,669.47762 30.309914,669.39398 30.38093,669.34833 C 30.626529,669.20176 30.885956,669.11028 31.141546,669.07899 z M 36.592671,669.07899 C 36.703349,669.07053 36.812298,669.07899 36.925454,669.07899 C 37.959888,669.07899 38.742686,669.44149 39.254847,670.15652 C 39.574311,670.6179 39.746107,671.1884 39.746107,671.86791 C 39.746107,672.2431 39.699836,672.64693 39.603488,673.08804 C 39.603488,673.08804 39.460869,673.64267 39.460869,673.64267 C 39.460869,673.64267 34.81219,673.64267 34.294949,673.64267 C 34.284804,673.74914 34.279091,673.86327 34.279091,673.9596 C 34.279091,674.35514 34.360244,674.66635 34.532627,674.89453 C 34.61456,675.0061 34.709542,675.10658 34.817865,675.17973 C 35.022111,675.31299 35.285754,675.38579 35.594362,675.38579 C 35.969586,675.38579 36.299195,675.28241 36.608514,675.08472 C 36.902608,674.89708 37.184047,674.59725 37.432526,674.18143 C 37.432526,674.18143 39.397465,674.18143 39.397465,674.18143 C 39.397465,674.18143 39.223176,674.56173 39.223176,674.56173 C 38.847921,675.32241 38.324342,675.91565 37.670219,676.33658 C 37.016096,676.75742 36.234549,676.98622 35.372497,676.98622 C 34.251859,676.98622 33.417703,676.62372 32.900485,675.90869 C 32.388326,675.2089 32.278034,674.24163 32.551845,673.02467 C 32.825702,671.78736 33.372057,670.79857 34.168174,670.10893 C 34.881747,669.49022 35.691452,669.14703 36.592671,669.07899 z M 44.848638,669.07899 C 44.959246,669.07053 45.068264,669.07899 45.181343,669.07899 C 46.215863,669.07899 46.998669,669.44149 47.510821,670.15652 C 47.830301,670.6179 48.001988,671.1884 48.001988,671.86791 C 48.001988,672.23807 47.955718,672.63609 47.859385,673.07218 C 47.859385,673.07218 47.716789,673.64267 47.716789,673.64267 C 47.716789,673.64267 43.06811,673.64267 42.550893,673.64267 C 42.545813,673.71371 42.540099,673.77769 42.53505,673.84863 C 42.531243,673.87526 42.536718,673.91571 42.53505,673.94373 C 42.534903,673.94832 42.53505,673.95519 42.53505,673.9596 C 42.53505,674.03566 42.545813,674.11049 42.550893,674.18143 C 42.576233,674.47052 42.65168,674.712 42.788586,674.89453 C 42.814667,674.93004 42.839165,674.97385 42.867801,675.00549 C 43.100051,675.25394 43.428765,675.38579 43.850283,675.38579 C 44.22553,675.38579 44.560173,675.28241 44.864412,675.08472 C 45.158606,674.89708 45.440014,674.59725 45.68847,674.18143 C 45.68847,674.18143 47.669198,674.18143 47.669198,674.18143 C 47.669198,674.18143 47.479089,674.56173 47.479089,674.56173 C 47.103811,675.32241 46.580293,675.91565 45.926163,676.33658 C 45.272032,676.75742 44.490454,676.98622 43.628448,676.98622 C 42.50778,676.98622 41.673623,676.62372 41.156414,675.90869 C 40.821747,675.45233 40.665185,674.87108 40.665185,674.18143 C 40.665185,674.07496 40.670859,673.96022 40.681035,673.84863 C 40.70131,673.58503 40.741868,673.31877 40.807803,673.02467 C 41.081622,671.79247 41.612158,670.79857 42.408274,670.10893 C 43.121824,669.49022 43.947372,669.14703 44.848638,669.07899 z M 67.334497,669.07899 C 67.447754,669.07026 67.551923,669.07899 67.667295,669.07899 C 68.722082,669.07899 69.532744,669.43576 70.060053,670.14065 C 70.58242,670.84546 70.709157,671.79626 70.440434,672.99294 C 70.232528,673.92602 69.93208,674.67966 69.521287,675.22733 C 69.110578,675.77499 68.587061,676.22245 67.968361,676.52668 C 67.354857,676.83092 66.705128,676.98622 66.050997,676.98622 C 64.975935,676.98622 64.175418,676.61861 63.658155,675.90869 C 63.323511,675.45735 63.151121,674.8762 63.151121,674.18143 C 63.151121,673.80625 63.192281,673.40753 63.293717,672.9613 C 63.597955,671.60227 64.219126,670.56723 65.13185,669.90296 C 65.801846,669.41927 66.541817,669.13989 67.334497,669.07899 z M 95.17654,669.07899 C 95.310242,669.0707 95.433983,669.07899 95.572703,669.07899 C 96.211593,669.07899 96.7136,669.14359 97.093904,669.30082 C 97.499586,669.46308 97.787341,669.69249 97.949594,669.96632 C 98.106828,670.22491 98.187295,670.54254 98.187295,670.93298 C 98.187295,670.93298 97.997193,672.08974 97.997193,672.08974 C 97.997193,672.08974 97.648529,673.65853 97.648529,673.65853 C 97.349316,674.99721 97.283481,675.49921 97.268232,675.68685 C 97.252984,675.94041 97.276432,676.18755 97.347463,676.41581 C 97.347463,676.41581 97.4742,676.82775 97.4742,676.82775 C 97.4742,676.82775 95.604343,676.82775 95.604343,676.82775 C 95.604343,676.82775 95.525112,676.59006 95.525112,676.59006 C 95.494707,676.47856 95.503609,676.33658 95.493472,676.20975 C 95.138469,676.4278 94.782933,676.62116 94.463446,676.73265 C 93.991843,676.895 93.502521,676.98622 93.005532,676.98622 C 92.143581,676.98622 91.505224,676.76183 91.119808,676.32072 C 90.825792,675.9962 90.692006,675.59942 90.692006,675.14809 C 90.692006,674.9757 90.714836,674.79696 90.755378,674.60933 C 90.841573,674.22391 90.99819,673.86706 91.246638,673.54757 C 91.49006,673.23319 91.777822,672.97461 92.102328,672.78697 C 92.416704,672.59934 92.767214,672.46625 93.132354,672.37495 C 93.132354,672.37495 94.257478,672.18484 94.257478,672.18484 C 95.124541,672.08339 95.771715,671.95727 96.238206,671.82032 C 96.248344,671.76964 96.269939,671.70944 96.269939,671.70944 C 96.343441,671.38317 96.334276,671.1379 96.254072,671.01222 C 96.248166,671.0041 96.229042,670.98745 96.22234,670.98048 C 96.205246,670.96224 96.17898,670.9336 96.158975,670.91712 C 95.968256,670.76623 95.64304,670.69528 95.20818,670.69528 C 94.716303,670.69528 94.35249,670.77575 94.099016,670.93298 C 93.850475,671.09013 93.620441,671.37788 93.417561,671.78868 C 93.417561,671.78868 91.500197,671.78868 91.500197,671.78868 C 91.500197,671.78868 91.674441,671.40838 91.674441,671.40838 C 91.902622,670.88099 92.174603,670.44357 92.514357,670.10893 C 92.854119,669.77428 93.313029,669.51499 93.845449,669.33246 C 94.253424,669.19779 94.699031,669.10843 95.17654,669.07899 z M 103.2106,669.07899 C 103.28216,669.07018 103.36033,669.07899 103.43243,669.07899 C 103.8939,669.07899 104.3262,669.2178 104.73188,669.5068 C 104.73188,669.5068 104.96957,669.68112 104.96957,669.68112 C 104.96957,669.68112 103.98705,671.29742 103.98705,671.29742 C 103.98705,671.29742 103.71772,671.10722 103.71772,671.10722 C 103.51995,670.98048 103.31768,670.91712 103.09972,670.91712 C 102.90697,670.91712 102.71678,670.98559 102.52923,671.10722 C 102.33648,671.23405 102.19644,671.40203 102.0697,671.63021 C 101.86178,672.02065 101.70077,672.45797 101.5943,672.92957 C 101.5943,672.92957 100.72274,676.82775 100.72274,676.82775 C 100.72274,676.82775 98.884523,676.82775 98.884523,676.82775 C 98.884523,676.82775 100.58014,669.22159 100.58014,669.22159 C 100.58014,669.22159 102.29153,669.22159 102.29153,669.22159 C 102.29153,669.22159 102.24844,669.45224 102.22816,669.53844 C 102.30924,669.47762 102.3898,669.39398 102.46586,669.34833 C 102.70752,669.20176 102.95518,669.11028 103.2106,669.07899 z M 108.64592,669.07899 C 108.75644,669.07053 108.86555,669.07899 108.97863,669.07899 C 110.01315,669.07899 110.80098,669.44149 111.3081,670.15652 C 111.63261,670.6179 111.79928,671.1884 111.79928,671.86791 C 111.79928,672.2431 111.73723,672.64693 111.64081,673.08804 C 111.64081,673.08804 111.51408,673.64267 111.51408,673.64267 C 111.51408,673.64267 106.86032,673.64267 106.34817,673.64267 C 106.33803,673.74914 106.31645,673.86327 106.31645,673.9596 C 106.31645,674.35514 106.40273,674.66635 106.57001,674.89453 C 106.5961,674.93004 106.63637,674.97385 106.6651,675.00549 C 106.68176,675.0232 106.71093,675.05237 106.72847,675.06886 C 106.95515,675.27492 107.26371,675.38579 107.64754,675.38579 C 108.02281,675.38579 108.35243,675.28241 108.6617,675.08472 C 108.95589,674.89708 109.23219,674.59725 109.48575,674.18143 C 109.48575,674.18143 111.46657,674.18143 111.46657,674.18143 C 111.46657,674.18143 111.27638,674.56173 111.27638,674.56173 C 110.9011,675.32241 110.37247,675.91565 109.72345,676.33658 C 109.06421,676.75742 108.29285,676.98622 107.4257,676.98622 C 106.30507,676.98622 105.48675,676.62372 104.96957,675.90869 C 104.45743,675.2089 104.33634,674.24163 104.60505,673.02467 C 104.87889,671.78736 105.40945,670.79857 106.20557,670.10893 C 106.9236,669.49022 107.74554,669.14703 108.64592,669.07899 z M 80.898972,669.22159 C 80.898972,669.22159 82.784696,669.22159 82.784696,669.22159 C 82.784696,669.22159 83.017277,673.73521 83.022389,673.80114 C 83.098454,673.63949 83.157503,673.50351 83.164992,673.4842 C 83.164992,673.4842 85.240903,669.22159 85.240903,669.22159 C 85.240903,669.22159 86.968157,669.22159 86.968157,669.22159 C 86.968157,669.22159 87.126627,673.68065 87.126627,673.70604 C 87.177306,673.61482 89.487651,669.22159 89.487651,669.22159 C 89.487651,669.22159 91.357509,669.22159 91.357509,669.22159 C 91.357509,669.22159 87.237497,676.82775 87.237497,676.82775 C 87.237497,676.82775 85.541976,676.82775 85.541976,676.82775 C 85.541976,676.82775 85.377777,672.70334 85.36764,672.47005 C 84.667856,673.90513 83.244223,676.82775 83.244223,676.82775 C 83.244223,676.82775 81.501102,676.82775 81.501102,676.82775 C 81.501102,676.82775 80.898972,669.22159 80.898972,669.22159 z M 36.624365,670.66355 C 36.18756,670.68197 35.790834,670.83947 35.420042,671.13895 C 35.125948,671.37225 34.927539,671.69234 34.770351,672.04215 C 34.770351,672.04224 37.892061,672.04215 37.892061,672.04215 C 37.897141,671.98645 37.907904,671.91859 37.907904,671.86791 C 37.907904,671.57883 37.856576,671.35444 37.765285,671.20232 C 37.5422,670.83727 37.211317,670.66355 36.719432,670.66355 C 36.689961,670.66355 36.65348,670.66232 36.624365,670.66355 z M 44.880278,670.66355 C 44.443481,670.68197 44.046793,670.83947 43.675962,671.13895 C 43.381869,671.37225 43.188547,671.69234 43.026271,672.04215 C 43.026271,672.04224 46.147997,672.04215 46.147997,672.04215 C 46.153023,671.98645 46.163863,671.91859 46.163863,671.86791 C 46.163863,671.57883 46.117592,671.35444 46.02126,671.20232 C 45.976927,671.1282 45.916998,671.05443 45.862798,670.99635 C 45.651008,670.7776 45.35964,670.66355 44.975375,670.66355 C 44.945851,670.66355 44.909447,670.66232 44.880278,670.66355 z M 108.74101,670.66355 C 108.29179,670.6774 107.87228,670.82951 107.48907,671.13895 C 107.20008,671.37225 107.00168,671.69234 106.83943,672.04215 C 106.83943,672.04224 109.94528,672.04215 109.94528,672.04215 C 109.9504,671.98645 109.96115,671.91859 109.96115,671.86791 C 109.96115,671.57883 109.91488,671.35444 109.81855,671.20232 C 109.6005,670.84229 109.26453,670.66866 108.77265,670.66355 C 108.75812,670.66373 108.75547,670.66311 108.74101,670.66355 z M 67.223627,670.69528 C 66.804456,670.74499 66.41464,670.93633 66.050997,671.26569 C 65.61491,671.66124 65.298596,672.28241 65.116068,673.1039 C 65.04001,673.44868 65.005112,673.74349 65.005112,674.0071 C 65.005112,674.36713 65.074206,674.64986 65.211165,674.86279 C 65.247569,674.91753 65.295955,674.97526 65.337903,675.02126 C 65.56335,675.26063 65.878082,675.38579 66.272831,675.38579 C 66.784984,675.38579 67.23632,675.19498 67.667295,674.79943 C 68.103382,674.39886 68.414585,673.77134 68.602224,672.92957 C 68.774615,672.15884 68.750549,671.58332 68.507127,671.21818 C 68.27392,670.86327 67.932845,670.69528 67.46132,670.69528 C 67.381301,670.69528 67.301275,670.68603 67.223627,670.69528 z M 95.85791,673.46834 C 95.426934,673.58503 94.943866,673.68321 94.304984,673.7695 C 93.828355,673.84044 93.488593,673.91527 93.290824,673.99132 C 93.118434,674.06228 92.979621,674.16055 92.862929,674.2924 C 92.75144,674.41913 92.676618,674.55221 92.641094,674.70442 C 92.630965,674.76523 92.625236,674.82798 92.625236,674.87866 C 92.625236,674.88281 92.625143,674.89047 92.625236,674.89453 C 92.625761,674.9066 92.623908,674.9304 92.625236,674.94212 C 92.628409,674.96503 92.634841,674.99985 92.641094,675.02126 C 92.643387,675.02841 92.65432,675.04612 92.656961,675.05299 C 92.662512,675.06666 92.665948,675.08754 92.672827,675.10059 C 92.679961,675.11337 92.696005,675.13575 92.704467,675.14809 C 92.71777,675.16633 92.735844,675.19436 92.752058,675.21146 C 92.878795,675.35344 93.131737,675.41743 93.496792,675.41743 C 93.897448,675.41743 94.282771,675.34137 94.637774,675.16395 C 94.987674,674.99148 95.2697,674.73412 95.477606,674.43499 C 95.629729,674.22206 95.75144,673.89429 95.85791,673.46834 z M -0.93381164,660.76287 L 41.594439,616.85307 L 48.53945,616.85307 L 38.270921,660.76287 L 32.558578,660.76287 L 35.474219,648.12308 L 17.645687,648.12308 L 5.5301612,660.76287 L -0.93381164,660.76287 M 21.978228,643.60031 L 36.559742,643.60031 L 39.250052,632.57793 C 40.335822,628.20496 41.380966,624.56079 42.38549,621.64542 C 40.378024,624.16142 37.722111,627.14665 34.417749,630.60109 L 21.978228,643.60031" />
      </g>
    </g>
    <g
       id="g5620"
       transform="matrix(0.7179958,0,0,0.7179958,804.25008,318.17921)">
      <rect
         style="fill:#980101;fill-opacity:1;stroke:none;stroke-width:99.74900055;stroke-linecap:round;stroke-linejoin:miter;stroke-miterlimit:4;stroke-dasharray:none;stroke-opacity:0.91747568"
         id="rect5622"
         width="402.87415"
         height="77.613274"
         x="-745.98541"
         y="603.72382"
         rx="20"
         ry="20" />
      <flowRoot
         xml:space="preserve"
         id="flowRoot5624"
         style="font-size:72px;font-style:normal;font-variant:normal;font-weight:normal;font-stretch:normal;text-align:start;line-height:125%;writing-mode:lr-tb;text-anchor:start;fill:#ffffff;fill-opacity:1;stroke:none;stroke-width:1px;stroke-linecap:butt;stroke-linejoin:miter;stroke-opacity:1;font-family:Dyuthi;-inkscape-font-specification:Dyuthi"
         transform="matrix(1.6127017,0,0,1.6127017,504.84712,482.75717)"><flowRegion
           id="flowRegion5626"><rect
             id="rect5628"
             width="919.26538"
             height="360.228"
             x="-741.43127"
             y="52.843498"
             style="font-size:72px;font-style:normal;font-variant:normal;font-weight:normal;font-stretch:normal;text-align:start;line-height:125%;writing-mode:lr-tb;text-anchor:start;fill:#ffffff;fill-opacity:1;font-family:Dyuthi;-inkscape-font-specification:Dyuthi" /></flowRegion><flowPara
           id="flowPara5630">ideas wiki</flowPara></flowRoot>    </g>
  </g>
</svg>
