<?xml version="1.0" encoding="UTF-8" standalone="no"?>
<!-- Created with Inkscape (http://www.inkscape.org/) -->
<svg
   xmlns:dc="http://purl.org/dc/elements/1.1/"
   xmlns:cc="http://creativecommons.org/ns#"
   xmlns:rdf="http://www.w3.org/1999/02/22-rdf-syntax-ns#"
   xmlns:svg="http://www.w3.org/2000/svg"
   xmlns="http://www.w3.org/2000/svg"
   xmlns:sodipodi="http://sodipodi.sourceforge.net/DTD/sodipodi-0.dtd"
   xmlns:inkscape="http://www.inkscape.org/namespaces/inkscape"
   width="120"
   height="42"
   id="svg2759"
   sodipodi:version="0.32"
   inkscape:version="0.46"
   version="1.0"
   sodipodi:docname="by-sa.svg"
   inkscape:output_extension="org.inkscape.output.svg.inkscape">
  <defs
     id="defs2761">
    <inkscape:perspective
       sodipodi:type="inkscape:persp3d"
       inkscape:vp_x="0 : 21 : 1"
       inkscape:vp_y="0 : 1000 : 0"
       inkscape:vp_z="120 : 21 : 1"
       inkscape:persp3d-origin="60 : 14 : 1"
       id="perspective2560" />
  </defs>
  <sodipodi:namedview
     id="base"
     pagecolor="#ffffff"
     bordercolor="#8b8b8b"
     borderopacity="1"
     gridtolerance="10000"
     guidetolerance="10"
     objecttolerance="10"
     inkscape:pageopacity="0.0"
     inkscape:pageshadow="2"
     inkscape:zoom="1"
     inkscape:cx="-21"
     inkscape:cy="89.569904"
     inkscape:document-units="px"
     inkscape:current-layer="layer1"
     width="120px"
     height="42px"
     inkscape:showpageshadow="false"
     inkscape:window-width="1198"
     inkscape:window-height="687"
     inkscape:window-x="474"
     inkscape:window-y="309"
     showgrid="false" />
  <metadata
     id="metadata2764">
    <rdf:RDF>
      <cc:Work
         rdf:about="">
        <dc:format>image/svg+xml</dc:format>
        <dc:type
           rdf:resource="http://purl.org/dc/dcmitype/StillImage" />
      </cc:Work>
    </rdf:RDF>
  </metadata>
  <g
     inkscape:label="Layer 1"
     inkscape:groupmode="layer"
     id="layer1">
    <g
       id="g2585"
       transform="matrix(1.1920966,0,0,1.1920966,-16.663843,3.1216691)"
       style="opacity:0.3">
      <g
         id="g5908_2_"
         transform="matrix(0.644019,0,0,0.6439464,-73.580401,50.851808)">
        <path
           id="path5906_2_"
           cx="296.35416"
           ry="22.939548"
           cy="264.3577"
           type="arc"
           rx="22.939548"
           d="M 187.20944,-55.6792 C 187.21502,-46.99896 180.18158,-39.95825 171.50134,-39.95212 C 162.82113,-39.94708 155.77929,-46.97998 155.77426,-55.66016 C 155.77426,-55.66687 155.77426,-55.67249 155.77426,-55.6792 C 155.76922,-64.36054 162.80209,-71.40125 171.48233,-71.40631 C 180.16367,-71.41193 187.20441,-64.37842 187.20944,-55.69824 C 187.20944,-55.69263 187.20944,-55.68591 187.20944,-55.6792 z"
           style="fill:#ffffff" />
        <g
           id="g5706_2_"
           transform="translate(-289.616,99.0653)">
          <path
             id="path5708_2_"
             d="M 473.88455,-167.54724 C 477.36996,-164.06128 479.11294,-159.79333 479.11294,-154.74451 C 479.11294,-149.69513 477.40014,-145.47303 473.9746,-142.07715 C 470.33929,-138.50055 466.04281,-136.71283 461.08513,-136.71283 C 456.18736,-136.71283 451.96526,-138.48544 448.42003,-142.03238 C 444.87419,-145.57819 443.10158,-149.81537 443.10158,-154.74451 C 443.10158,-159.6731 444.87419,-163.94049 448.42003,-167.54724 C 451.87523,-171.03375 456.09728,-172.77618 461.08513,-172.77618 C 466.13342,-172.77618 470.39914,-171.03375 473.88455,-167.54724 z M 450.76657,-165.20239 C 447.81982,-162.22601 446.34701,-158.7395 446.34701,-154.74005 C 446.34701,-150.7417 447.80529,-147.28485 450.72125,-144.36938 C 453.63778,-141.45288 457.10974,-139.99462 461.1383,-139.99462 C 465.16683,-139.99462 468.66848,-141.46743 471.64486,-144.41363 C 474.47076,-147.14947 475.88427,-150.59069 475.88427,-154.74005 C 475.88427,-158.85809 474.44781,-162.35297 471.57659,-165.22479 C 468.70595,-168.09546 465.22671,-169.53131 461.1383,-169.53131 C 457.04993,-169.53131 453.59192,-168.08813 450.76657,-165.20239 z M 458.52106,-156.49927 C 458.07074,-157.4809 457.39673,-157.9715 456.49781,-157.9715 C 454.90867,-157.9715 454.11439,-156.90198 454.11439,-154.763 C 454.11439,-152.62341 454.90867,-151.55389 456.49781,-151.55389 C 457.54719,-151.55389 458.29676,-152.07519 458.74647,-153.11901 L 460.94923,-151.94598 C 459.8993,-150.0805 458.32417,-149.14697 456.22374,-149.14697 C 454.60384,-149.14697 453.30611,-149.64367 452.33168,-150.63653 C 451.35561,-151.62994 450.86894,-152.99926 450.86894,-154.7445 C 450.86894,-156.46008 451.37123,-157.82159 452.37642,-158.83013 C 453.38161,-159.83806 454.63347,-160.34264 456.13423,-160.34264 C 458.35435,-160.34264 459.94407,-159.46776 460.90504,-157.71978 L 458.52106,-156.49927 z M 468.8844,-156.49927 C 468.43353,-157.4809 467.77292,-157.9715 466.90201,-157.9715 C 465.28095,-157.9715 464.46988,-156.90198 464.46988,-154.763 C 464.46988,-152.62341 465.28095,-151.55389 466.90201,-151.55389 C 467.95304,-151.55389 468.68918,-152.07519 469.10925,-153.11901 L 471.36126,-151.94598 C 470.31301,-150.0805 468.74007,-149.14697 466.64358,-149.14697 C 465.02587,-149.14697 463.73095,-149.64367 462.75711,-150.63653 C 461.78494,-151.62994 461.29773,-152.99926 461.29773,-154.7445 C 461.29773,-156.46008 461.79221,-157.82159 462.78061,-158.83013 C 463.76843,-159.83806 465.02588,-160.34264 466.55408,-160.34264 C 468.77027,-160.34264 470.35776,-159.46776 471.3154,-157.71978 L 468.8844,-156.49927 z" />
        </g>
      </g>
      <g
         id="g6316_1_"
         transform="matrix(0.6211082,0,0,0.6210382,211.10195,101.39304)">
        <path
           id="path6318_1_"
           cx="475.97119"
           ry="29.209877"
           cy="252.08646"
           type="arc"
           rx="29.209877"
           d="M -175.0083,-139.1153 C -175.00204,-129.7035 -182.62555,-122.06751 -192.03812,-122.06049 C -201.44913,-122.05341 -209.08512,-129.67774 -209.09293,-139.09028 C -209.09293,-139.09809 -209.09293,-139.10749 -209.09293,-139.1153 C -209.09919,-148.52784 -201.47413,-156.1623 -192.06311,-156.17011 C -182.65054,-156.17713 -175.01456,-148.55207 -175.0083,-139.14026 C -175.0083,-139.13092 -175.0083,-139.1239 -175.0083,-139.1153 z"
           style="fill:#ffffff" />
        <g
           id="g6320_1_"
           transform="translate(-23.9521,-89.7296)">
          <path
             id="path6322_1_"
             d="M -168.2204,-68.05536 C -173.39234,-68.05536 -177.76892,-66.25067 -181.35175,-62.64203 C -185.02836,-58.90759 -186.86588,-54.48883 -186.86588,-49.38568 C -186.86588,-44.28253 -185.02836,-39.89416 -181.35175,-36.22308 C -177.67673,-32.55114 -173.29859,-30.71521 -168.2204,-30.71521 C -163.07974,-30.71521 -158.62503,-32.56677 -154.85312,-36.26996 C -151.30307,-39.78558 -149.52652,-44.15827 -149.52652,-49.38568 C -149.52652,-54.6123 -151.33432,-59.03265 -154.94843,-62.64203 C -158.5625,-66.25067 -162.98599,-68.05536 -168.2204,-68.05536 z M -168.17352,-64.69519 C -163.936,-64.69519 -160.33752,-63.20221 -157.37655,-60.21466 C -154.38748,-57.25836 -152.89214,-53.64899 -152.89214,-49.38568 C -152.89214,-45.09186 -154.35466,-41.52856 -157.28438,-38.69653 C -160.36876,-35.64727 -163.99849,-34.12304 -168.17351,-34.12304 C -172.34856,-34.12304 -175.94701,-35.63244 -178.96892,-38.64965 C -181.9908,-41.66918 -183.50176,-45.24657 -183.50176,-49.38567 C -183.50176,-53.52398 -181.97518,-57.13414 -178.92205,-60.21465 C -175.9939,-63.20221 -172.41107,-64.69519 -168.17352,-64.69519 z" />
          <path
             id="path6324_1_"
             d="M -176.49548,-52.02087 C -175.75171,-56.71856 -172.44387,-59.22949 -168.30008,-59.22949 C -162.33911,-59.22949 -158.70783,-54.90448 -158.70783,-49.1372 C -158.70783,-43.50982 -162.57194,-39.13793 -168.39383,-39.13793 C -172.39856,-39.13793 -175.98297,-41.60277 -176.63611,-46.43877 L -171.93292,-46.43877 C -171.7923,-43.92778 -170.1626,-43.04418 -167.83447,-43.04418 C -165.1813,-43.04418 -163.4563,-45.50908 -163.4563,-49.27709 C -163.4563,-53.22942 -164.94693,-55.32244 -167.74228,-55.32244 C -169.79074,-55.32244 -171.55948,-54.57787 -171.93292,-52.02087 L -170.56418,-52.02789 L -174.26734,-48.32629 L -177.96894,-52.02789 L -176.49548,-52.02087 z" />
        </g>
      </g>
      <g
         transform="matrix(0.993781,0,0,0.993669,-176.73095,-74.419724)"
         id="g313">
        <circle
           cx="242.56226"
           cy="90.224609"
           r="10.8064"
           id="circle315"
           sodipodi:cx="242.56226"
           sodipodi:cy="90.224609"
           sodipodi:rx="10.8064"
           sodipodi:ry="10.8064"
           style="fill:#ffffff" />
        <g
           id="g317">
          <path
             d="M 245.68994,87.09766 C 245.68994,86.68116 245.35205,86.34424 244.93603,86.34424 L 240.16357,86.34424 C 239.74755,86.34424 239.40966,86.68115 239.40966,87.09766 L 239.40966,91.87061 L 240.74071,91.87061 L 240.74071,97.52295 L 244.3579,97.52295 L 244.3579,91.87061 L 245.68993,91.87061 L 245.68993,87.09766 L 245.68994,87.09766 z"
             id="path319" />
          <circle
             cx="242.5498"
             cy="84.083008"
             r="1.63232"
             id="circle321"
             sodipodi:cx="242.5498"
             sodipodi:cy="84.083008"
             sodipodi:rx="1.63232"
             sodipodi:ry="1.63232" />
        </g>
        <path
           clip-rule="evenodd"
           d="M 242.53467,78.31836 C 239.30322,78.31836 236.56641,79.4458 234.32715,81.70215 C 232.0293,84.03516 230.88086,86.79736 230.88086,89.98633 C 230.88086,93.1753 232.0293,95.91846 234.32715,98.21338 C 236.625,100.50781 239.36133,101.65527 242.53467,101.65527 C 245.74756,101.65527 248.53272,100.49853 250.88819,98.18359 C 253.10889,95.98681 254.21827,93.2539 254.21827,89.98632 C 254.21827,86.71874 253.08936,83.95751 250.83057,81.70214 C 248.57178,79.4458 245.80615,78.31836 242.53467,78.31836 z M 242.56396,80.41797 C 245.2124,80.41797 247.46142,81.35156 249.31103,83.21875 C 251.18115,85.06592 252.11572,87.32227 252.11572,89.98633 C 252.11572,92.66992 251.20068,94.89746 249.36963,96.66699 C 247.4419,98.57275 245.17334,99.52539 242.56397,99.52539 C 239.9546,99.52539 237.70557,98.58252 235.81739,96.6958 C 233.92774,94.80957 232.98389,92.57324 232.98389,89.98633 C 232.98389,87.3999 233.93799,85.14404 235.84619,83.21875 C 237.67676,81.35156 239.9165,80.41797 242.56396,80.41797 z"
           id="path323"
           style="fill-rule:evenodd" />
      </g>
    </g>
  </g>
</svg>
