<?xml version="1.0" encoding="UTF-8" standalone="no"?>
<!-- Created with Inkscape (http://www.inkscape.org/) -->

<svg
   xmlns:dc="http://purl.org/dc/elements/1.1/"
   xmlns:cc="http://creativecommons.org/ns#"
   xmlns:rdf="http://www.w3.org/1999/02/22-rdf-syntax-ns#"
   xmlns:svg="http://www.w3.org/2000/svg"
   xmlns="http://www.w3.org/2000/svg"
   xmlns:sodipodi="http://sodipodi.sourceforge.net/DTD/sodipodi-0.dtd"
   xmlns:inkscape="http://www.inkscape.org/namespaces/inkscape"
   width="744.09448819"
   height="1052.3622047"
   id="svg2"
   sodipodi:version="0.32"
   inkscape:version="0.46+devel"
   sodipodi:docname="New document 1"
   inkscape:output_extension="org.inkscape.output.svg.inkscape">
  <defs
     id="defs4">
    <inkscape:perspective
       sodipodi:type="inkscape:persp3d"
       inkscape:vp_x="0 : 526.18109 : 1"
       inkscape:vp_y="0 : 1000 : 0"
       inkscape:vp_z="744.09448 : 526.18109 : 1"
       inkscape:persp3d-origin="372.04724 : 350.78739 : 1"
       id="perspective10" />
    <marker
       inkscape:stockid="StopM"
       orient="auto"
       refY="0"
       refX="0"
       id="StopM"
       style="overflow:visible">
      <path
         id="path3364"
         d="M 0,5.65 0,-5.65"
         style="fill:none;stroke:#000000;stroke-width:1pt"
         transform="scale(0.4,0.4)" />
    </marker>
    <marker
       inkscape:stockid="StopL"
       orient="auto"
       refY="0"
       refX="0"
       id="StopL"
       style="overflow:visible">
      <path
         id="path3361"
         d="M 0,5.65 0,-5.65"
         style="fill:none;stroke:#000000;stroke-width:1pt"
         transform="scale(0.8,0.8)" />
    </marker>
    <inkscape:perspective
       sodipodi:type="inkscape:persp3d"
       inkscape:vp_x="0 : 526.18109 : 1"
       inkscape:vp_y="0 : 1000 : 0"
       inkscape:vp_z="744.09448 : 526.18109 : 1"
       inkscape:persp3d-origin="372.04724 : 350.78739 : 1"
       id="perspective2453" />
    <inkscape:perspective
       id="perspective10-6"
       inkscape:persp3d-origin="372.04724 : 350.78739 : 1"
       inkscape:vp_z="744.09448 : 526.18109 : 1"
       inkscape:vp_y="0 : 1000 : 0"
       inkscape:vp_x="0 : 526.18109 : 1"
       sodipodi:type="inkscape:persp3d" />
    <filter
       id="filter970"
       inkscape:label="Drop shadow"
       width="1.5"
       height="1.5"
       x="-.25"
       y="-.25">
      <feGaussianBlur
         id="feGaussianBlur972"
         in="SourceAlpha"
         stdDeviation="2.000000"
         result="blur" />
      <feColorMatrix
         id="feColorMatrix974"
         result="bluralpha"
         type="matrix"
         values="1 0 0 0 0 0 1 0 0 0 0 0 1 0 0 0 0 0 0.500000 0 " />
      <feOffset
         id="feOffset976"
         in="bluralpha"
         dx="4.000000"
         dy="4.000000"
         result="offsetBlur" />
      <feMerge
         id="feMerge978">
        <feMergeNode
           id="feMergeNode980"
           in="offsetBlur" />
        <feMergeNode
           id="feMergeNode982"
           in="SourceGraphic" />
      </feMerge>
    </filter>
  </defs>
  <sodipodi:namedview
     id="base"
     pagecolor="#ffffff"
     bordercolor="#666666"
     borderopacity="1.0"
     inkscape:pageopacity="0.0"
     inkscape:pageshadow="2"
     inkscape:zoom="0.98994949"
     inkscape:cx="-58.957779"
     inkscape:cy="851.6443"
     inkscape:document-units="px"
     inkscape:current-layer="layer1"
     showgrid="false"
     inkscape:window-width="1680"
     inkscape:window-height="976"
     inkscape:window-x="0"
     inkscape:window-y="25" />
  <metadata
     id="metadata7">
    <rdf:RDF>
      <cc:Work
         rdf:about="">
        <dc:format>image/svg+xml</dc:format>
        <dc:type
           rdf:resource="http://purl.org/dc/dcmitype/StillImage" />
        <dc:title></dc:title>
      </cc:Work>
    </rdf:RDF>
  </metadata>
  <g
     inkscape:label="Layer 1"
     inkscape:groupmode="layer"
     id="layer1">
    <rect
       style="fill:#d40000"
       id="rect12"
       width="217.18279"
       height="100"
       x="-492.95444"
       y="-61.836075"
       inkscape:export-filename="/home/mattl/dev/stable/meeja/img/lfm-top.png"
       inkscape:export-xdpi="90"
       inkscape:export-ydpi="90" />
    <g
       id="g966"
       transform="matrix(0.92870508,0,0,0.92870508,-30.115237,-1.8695259)"
       style="filter:url(#filter970)">
      <rect
         transform="matrix(-0.99578731,0.09169316,0.09169316,0.99578731,0,0)"
         ry="16.707399"
         y="-80.878883"
         x="280.65149"
         height="66.829597"
         width="200.4888"
         id="rect3181"
         style="fill:#990000;fill-opacity:1;stroke:#ffffff;stroke-width:3;stroke-miterlimit:4;stroke-opacity:1;stroke-dasharray:none" />
      <path
         id="text3183"
         d="m -467.89662,-16.016708 c -0.0946,-1.027552 0.17969,-1.867042 0.82291,-2.518461 0.53311,-0.64123 1.27676,-1.005789 2.23095,-1.093685 0.73397,-0.06755 1.49668,0.176806 2.28813,0.733073 0.71464,0.526394 1.11759,1.285016 1.20884,2.275866 l 1.42935,19.7430098 8.22186,-1.1456831 c 0.84406,-0.077722 1.53507,0.1917448 2.073,0.8083932 0.53452,0.5799669 0.85248,1.4204314 0.95388,2.5214086 0.0811,0.8807826 -0.0899,1.6367314 -0.51288,2.2678478 -0.38634,0.6277483 -1.01989,0.9821695 -1.90065,1.0632712 l -11.61534,1.0695522 c -0.66059,0.060828 -1.32648,-0.1369264 -1.99767,-0.5932716 -0.63113,-0.4230218 -0.97879,-0.9831743 -1.043,-1.6804649 l -2.15938,-23.4508562 z m 22.80911,20.7721875 -2.28326,-22.3846455 c -0.098,-1.064252 0.15288,-1.957104 0.75264,-2.678546 0.5732,-0.607909 1.39193,-0.960876 2.45622,-1.058909 1.06427,-0.09797 1.91535,0.101242 2.55323,0.597633 0.63788,0.496451 1.00074,1.221751 1.08862,2.175907 l 1.81823,22.7605605 c 0.0946,1.0275861 -0.14129,1.8820386 -0.70773,2.5633743 -0.56982,0.6446359 -1.27677,1.0058236 -2.12085,1.083539 -0.95418,0.087871 -1.7519,-0.1347658 -2.39316,-0.6678839 -0.67796,-0.5297385 -1.06594,-1.3267511 -1.16394,-2.3910294 l 0,0 z m 8.9869,-23.6999985 c -0.0676,-0.733958 0.1251,-1.454896 0.57807,-2.16282 0.4462,-0.781269 0.9996,-1.202334 1.66019,-1.263187 l 10.01891,-0.922552 c 1.79825,-0.165559 3.42893,0.461505 4.89205,1.881192 1.46309,1.419742 2.2825,3.083782 2.45825,4.992121 0.21963,2.385476 -0.67399,4.336789 -2.68087,5.853941 1.89867,0.121267 3.40767,0.8335612 4.52699,2.1368743 0.99566,1.1666829 1.57798,2.667501 1.74697,4.5024535 0.21625,2.3487664 -0.2551,4.46475649 -1.41405,6.3479703 -1.28889,2.0802329 -3.0343,3.2217317 -5.23623,3.4244881 l -11.61533,1.0695522 c -0.66059,0.060828 -1.26637,-0.086951 -1.81733,-0.4433303 -0.55097,-0.3563784 -0.85686,-0.8648667 -0.91769,-1.5254561 l -2.19993,-23.891247 z m 12.77177,12.0922198 -4.84431,0.4460691 0.65896,7.15636278 4.84431,-0.44606906 c 1.50466,-0.13854239 2.57691,-0.55186505 3.21677,-1.23997029 0.5331,-0.64124583 0.76418,-1.34722023 0.69323,-2.11791493 -0.0439,-0.4770815 -0.19145,-1.0741711 -0.44252,-1.7912678 -0.2511,-0.717077 -0.51691,-1.1922437 -0.79745,-1.4254983 -0.64127,-0.5330999 -1.75094,-0.7270037 -3.32899,-0.5817115 l 0,0 z m -1.90836,-9.8726188 -3.85343,0.354829 0.56265,6.110435 4.84431,-0.446069 c 1.10096,-0.101362 1.57711,-0.959438 1.42844,-2.574228 -0.12167,-1.321152 -0.39303,-2.258438 -0.81408,-2.81185 -0.381,-0.520054 -1.10363,-0.73109 -2.16789,-0.633117 l 0,0 z m 13.77607,-5.543226 c -0.0473,-0.513758 0.1205,-1.102879 0.50345,-1.767344 0.45971,-0.634472 0.94646,-0.975375 1.46026,-1.022712 l 10.89969,-1.003655 c 2.16525,-0.199353 4.13806,0.525744 5.91843,2.175289 1.75039,1.726381 2.72529,3.672187 2.92469,5.837418 0.15543,1.688193 -0.21812,3.258523 -1.12065,4.710997 -1.00591,1.536051 -2.6277,2.814209 -4.86539,3.8344726 l 7.1591,6.0026619 c 0.7716,0.7431902 1.19966,1.5735163 1.28417,2.4909955 0.0811,0.88079093 -0.14493,1.64180891 -0.67802,2.2830623 -0.19319,0.3138719 -0.51722,0.7138163 -0.97208,1.199825 -0.45491,0.4860125 -0.86585,0.7459102 -1.23282,0.7797012 -1.2478,0.1148989 -2.44292,-0.4042228 -3.58538,-1.5573885 l -9.68112,-9.8785951 0.80597,8.75278437 c 0.098,1.06427903 -0.16618,2.01386423 -0.79248,2.84875483 -0.59977,0.7214179 -1.37675,1.1260575 -2.33092,1.2139189 -0.91748,0.084483 -1.70023,-0.1765362 -2.34824,-0.7830568 -0.67797,-0.5297378 -1.0744,-1.4184952 -1.18928,-2.6662723 l -2.15938,-23.4508569 z m 6.94985,2.524447 0.62348,6.771025 4.89936,-0.451139 c 1.35786,-0.125016 2.26328,-0.541483 2.71626,-1.249401 0.48964,-0.711261 0.70213,-1.619075 0.63747,-2.723452 -0.0575,-0.62387 -0.41696,-1.312469 -1.07847,-2.065804 -0.57464,-0.613253 -1.54089,-0.857375 -2.89874,-0.732367 l -4.89936,0.451138 z m 18.64164,-4.270266 c -0.0811,-0.880755 0.11157,-1.601692 0.57806,-2.16283 0.53987,-0.567827 1.19516,-0.887237 1.96585,-0.958236 l 10.67949,-0.983379 c 0.99087,-0.09121 1.777,0.206513 2.35839,0.893151 0.57798,0.650008 0.90752,1.415388 0.98865,2.296141 0.0912,0.990912 -0.038,1.798533 -0.38757,2.422865 -0.38635,0.627766 -0.9832,0.978808 -1.79056,1.053125 l -8.83825,0.480749 0.51703,5.614993 8.22693,-1.09064 c 0.77067,-0.07095 1.40493,0.185239 1.90279,0.768556 0.53452,0.579976 0.85248,1.42044 0.95388,2.521401 0.0811,0.880799 -0.0331,1.65003 -0.34266,2.307701 -0.38635,0.627749 -0.92815,0.9737211 -1.62542,1.0379186 l -8.55793,0.5104467 0.47648,5.1746029 8.22186,-1.1456914 c 1.02756,-0.094611 1.84701,0.1630289 2.45835,0.7729184 0.60454,0.5365074 0.95919,1.3735924 1.06398,2.5112626 0.0709,0.7706954 -0.0884,1.4515519 -0.47811,2.04258757 -0.34965,0.62436958 -0.85475,0.96696253 -1.51532,1.02778883 l -12.22087,1.1253107 c -0.44039,0.040552 -0.94114,-0.1724095 -1.50223,-0.6388923 -0.55097,-0.3563776 -0.85349,-0.8281647 -0.90755,-1.41536065 l -2.22527,-24.16648895 z m 26.02642,17.2560184 c 1.02757,-0.094611 1.86706,0.179689 2.51847,0.8229018 0.65814,0.7166168 1.02946,1.5336697 1.11395,2.4511422 0.0845,0.9174906 -0.11811,1.7318708 -0.60777,2.4431404 -0.5563,0.79144091 -1.34825,1.23446326 -2.37582,1.32908287 -1.10099,0.10138014 -2.01556,-0.18450431 -2.74373,-0.85766843 -0.65816,-0.71661604 -1.02778,-1.51531004 -1.10889,-2.39609864 -0.0845,-0.9174816 0.15312,-1.7535835 0.7128,-2.5083224 0.52298,-0.7513511 1.35331,-1.1794099 2.49099,-1.2841778 l 0,0 z m 7.70561,3.1765653 -2.13404,-23.1756137 c -0.17572,-1.908332 0.56215,-2.938549 2.21362,-3.090652 l 11.28504,-1.039138 c 0.91746,-0.08445 1.68186,0.178261 2.2932,0.788125 0.57797,0.650008 0.90584,1.397037 0.98358,2.241089 0.10136,1.101006 -0.0112,1.888588 -0.33759,2.362744 -0.35302,0.587693 -0.89652,0.915316 -1.63049,0.982875 l -9.00339,0.495947 0.43086,4.679161 7.89663,-1.060226 c 0.84408,-0.0777 1.51334,0.156758 2.00782,0.703375 0.53114,0.543274 0.84742,1.365396 0.94881,2.466357 0.0709,0.770695 -0.0884,1.45156 -0.47811,2.042588 -0.41628,0.70453 -1.04644,1.095652 -1.89052,1.173358 l -7.92704,0.729931 0.84652,9.1931829 c 0.0946,1.0275778 -0.16303,1.8470271 -0.77292,2.4583397 -0.57321,0.607943 -1.28185,0.95077178 -2.12593,1.02849548 -0.36699,0.0337934 -0.63898,-0.005926 -0.81595,-0.11917319 -0.17698,-0.11323914 -0.38908,-0.30651319 -0.63631,-0.57983949 -0.67119,-0.4563361 -1.05579,-1.2166474 -1.15379,-2.2809257 l 0,0 z m 29.0944,-25.3294607 5.67552,12.801168 3.57271,-13.652755 c 0.33899,-1.141496 0.88515,-2.043031 1.63849,-2.70459 0.75329,-0.661504 1.60704,-1.036201 2.56125,-1.124099 0.99085,-0.09121 1.90205,0.157986 2.73359,0.747574 0.91163,0.656296 1.5384,1.634872 1.88027,2.935739 l 5.62027,21.2446406 0.0659,0.7156329 c 0.0811,0.8807917 -0.12828,1.6217701 -0.62805,2.2229502 -0.57661,0.5712357 -1.48879,0.9143087 -2.73653,1.0292022 -0.80741,0.074347 -1.54671,-0.1166563 -2.21787,-0.5729954 -0.43414,-0.2931195 -0.99642,-1.7772767 -1.68685,-4.4524791 l -2.89336,-13.3349284 -0.0551,0.0051 c -0.11013,0.01017 -0.2352,0.05865 -0.3752,0.145586 l -2.95196,13.7621344 c -0.81329,3.627899 -1.82546,5.4975972 -3.03652,5.6091127 -1.1377,0.1047604 -2.49263,-1.5469728 -4.0648,-4.9552156 l -5.50459,-12.1507165 -0.19049,-0.260036 -0.0551,0.0051 c -0.11011,0.01016 -0.26849,0.0988 -0.47517,0.26582 l 0.24382,11.6913581 c -0.0715,1.6350492 -0.35923,3.1327112 -0.86314,4.4929785 -0.50393,1.3602772 -1.21463,2.0826567 -2.13211,2.1671387 -1.54137,0.1419317 -2.65273,-0.070323 -3.33406,-0.6367626 -0.71466,-0.5263591 -1.11423,-1.2482794 -1.19871,-2.16577 l -0.0456,-0.4954421 1.76136,-21.8688296 c 0.10192,-1.30472 0.54113,-2.362954 1.31763,-3.174688 0.84989,-0.818441 1.77027,-1.273298 2.76116,-1.364565 2.05515,-0.189215 3.59288,0.835023 4.61317,3.072698 l 0,0 z"
         style="font-size:67.76470947px;font-style:normal;font-variant:normal;font-weight:normal;font-stretch:normal;text-align:start;line-height:125%;writing-mode:lr-tb;text-anchor:start;fill:#ffffff;fill-opacity:1;stroke:none;font-family:Dyuthi;-inkscape-font-specification:Dyuthi" />
    </g>
    <rect
       style="fill:#00aad4;fill-opacity:1;stroke:none"
       id="rect984"
       width="217.183"
       height="100"
       x="-475.94092"
       y="156.52101"
       inkscape:export-filename="/home/mattl/dev/stable/meeja/img/gnufm.png"
       inkscape:export-xdpi="90"
       inkscape:export-ydpi="90" />
    <g
       id="g996"
       transform="matrix(0.79980495,-0.07827305,0.07827305,0.79980495,-87.257308,-131.78572)">
      <rect
         y="347.21109"
         x="-498.06979"
         height="74.880524"
         width="218.32217"
         id="rect994"
         style="fill:#00aad4;fill-opacity:1;stroke:#ffffff;stroke-width:2.87076902;stroke-miterlimit:4;stroke-opacity:1;stroke-dasharray:none" />
      <flowRoot
         transform="matrix(1.3874265,0,0,1.3874265,190.0395,-137.944)"
         style="font-size:40px;font-style:normal;font-weight:normal;fill:#000000;fill-opacity:1;stroke:#000000;stroke-width:3;stroke-miterlimit:4;stroke-opacity:1;stroke-dasharray:none;font-family:Bitstream Vera Sans"
         id="flowRoot986"
         xml:space="preserve"><flowRegion
           id="flowRegion988"><rect
             style="stroke:#000000;stroke-width:3;stroke-miterlimit:4;stroke-opacity:1;stroke-dasharray:none"
             y="345.2554"
             x="-490.93414"
             height="121.21831"
             width="314.15744"
             id="rect990" /></flowRegion><flowPara
           style="font-size:48px;font-style:normal;font-variant:normal;font-weight:bold;font-stretch:normal;text-align:start;line-height:125%;letter-spacing:6.06091881000000043;writing-mode:lr-tb;text-anchor:start;stroke:#ffffff;stroke-width:3;stroke-miterlimit:4;stroke-opacity:1;stroke-dasharray:none;font-family:VL Gothic;-inkscape-font-specification:VL Gothic Bold;fill:#ffffff"
           id="flowPara992">GNUFM</flowPara></flowRoot>    </g>
  </g>
</svg>
