<?xml version="1.0" encoding="UTF-8" standalone="no"?>
<!-- Created with Inkscape (http://www.inkscape.org/) -->
<svg
   xmlns:dc="http://purl.org/dc/elements/1.1/"
   xmlns:cc="http://creativecommons.org/ns#"
   xmlns:rdf="http://www.w3.org/1999/02/22-rdf-syntax-ns#"
   xmlns:svg="http://www.w3.org/2000/svg"
   xmlns="http://www.w3.org/2000/svg"
   xmlns:sodipodi="http://sodipodi.sourceforge.net/DTD/sodipodi-0.dtd"
   xmlns:inkscape="http://www.inkscape.org/namespaces/inkscape"
   width="950"
   height="70"
   id="svg2507"
   sodipodi:version="0.32"
   inkscape:version="0.46"
   version="1.0"
   inkscape:export-filename="/home/mattl/libre.fm/trunk/nixtape/themes/librefm/images/header.png"
   inkscape:export-xdpi="90"
   inkscape:export-ydpi="90"
   sodipodi:docname="header.svg"
   inkscape:output_extension="org.inkscape.output.svg.inkscape">
  <defs
     id="defs2509">
    <linearGradient
       id="linearGradient2541">
      <stop
         style="stop-color:#980101;stop-opacity:1;"
         offset="0"
         id="stop2543" />
      <stop
         style="stop-color:#ce1717;stop-opacity:1;"
         offset="1"
         id="stop2545" />
    </linearGradient>
    <inkscape:perspective
       sodipodi:type="inkscape:persp3d"
       inkscape:vp_x="0 : 526.18109 : 1"
       inkscape:vp_y="0 : 1000 : 0"
       inkscape:vp_z="744.09448 : 526.18109 : 1"
       inkscape:persp3d-origin="372.04724 : 350.78739 : 1"
       id="perspective2515" />
    <marker
       inkscape:stockid="StopM"
       orient="auto"
       refY="0"
       refX="0"
       id="StopM"
       style="overflow:visible">
      <path
         id="path3364"
         d="M 0,5.65 L 0,-5.65"
         style="fill:none;fill-opacity:0.75;fill-rule:evenodd;stroke:#000000;stroke-width:1pt"
         transform="scale(0.4,0.4)" />
    </marker>
    <marker
       inkscape:stockid="StopL"
       orient="auto"
       refY="0"
       refX="0"
       id="StopL"
       style="overflow:visible">
      <path
         id="path3361"
         d="M 0,5.65 L 0,-5.65"
         style="fill:none;fill-opacity:0.75;fill-rule:evenodd;stroke:#000000;stroke-width:1pt"
         transform="scale(0.8,0.8)" />
    </marker>
    <inkscape:perspective
       sodipodi:type="inkscape:persp3d"
       inkscape:vp_x="0 : 526.18109 : 1"
       inkscape:vp_y="0 : 1000 : 0"
       inkscape:vp_z="744.09448 : 526.18109 : 1"
       inkscape:persp3d-origin="372.04724 : 350.78739 : 1"
       id="perspective2453" />
    <inkscape:perspective
       id="perspective10"
       inkscape:persp3d-origin="372.04724 : 350.78739 : 1"
       inkscape:vp_z="744.09448 : 526.18109 : 1"
       inkscape:vp_y="0 : 1000 : 0"
       inkscape:vp_x="0 : 526.18109 : 1"
       sodipodi:type="inkscape:persp3d" />
  </defs>
  <sodipodi:namedview
     id="base"
     pagecolor="#ffffff"
     bordercolor="#666666"
     borderopacity="1.0"
     gridtolerance="10000"
     guidetolerance="10"
     objecttolerance="10"
     inkscape:pageopacity="0.0"
     inkscape:pageshadow="2"
     inkscape:zoom="1.4"
     inkscape:cx="320.95918"
     inkscape:cy="145.08921"
     inkscape:document-units="px"
     inkscape:current-layer="layer1"
     showgrid="false"
     inkscape:window-width="1680"
     inkscape:window-height="974"
     inkscape:window-x="0"
     inkscape:window-y="25" />
  <metadata
     id="metadata2512">
    <rdf:RDF>
      <cc:Work
         rdf:about="">
        <dc:format>image/svg+xml</dc:format>
        <dc:type
           rdf:resource="http://purl.org/dc/dcmitype/StillImage" />
      </cc:Work>
    </rdf:RDF>
  </metadata>
  <g
     inkscape:label="Layer 1"
     inkscape:groupmode="layer"
     id="layer1">
    <g
       id="g2536"
       inkscape:label="Layer 1"
       transform="matrix(0.827381,0,0,0.827381,-104.70238,-130.23809)">
      <g
         id="g3283">
        <rect
           style="fill:#990000;fill-opacity:1;stroke:none;stroke-width:1;stroke-linecap:square;stroke-miterlimit:4;stroke-dasharray:none;stroke-opacity:1"
           id="rect3181"
           width="240"
           height="80"
           x="-370"
           y="160"
           ry="20"
           transform="scale(-1,1)" />
        <path
           style="font-size:67.76470947px;font-style:normal;font-variant:normal;font-weight:normal;font-stretch:normal;text-align:start;line-height:125%;writing-mode:lr-tb;text-anchor:start;fill:#ffffff;fill-opacity:1;stroke:none;stroke-width:1px;stroke-linecap:butt;stroke-linejoin:miter;stroke-opacity:1;font-family:Dyuthi;-inkscape-font-specification:Dyuthi"
           d="M 149.97125,186.36764 C 149.97125,185.13238 150.39037,184.16179 151.22861,183.45588 C 151.93448,182.75003 152.86095,182.39709 154.00802,182.39705 C 154.89036,182.39709 155.77271,182.77209 156.65508,183.52205 C 157.44918,184.22797 157.84624,185.1765 157.84625,186.36764 L 157.38302,210.05882 L 167.30949,209.59559 C 168.32417,209.59559 169.11829,209.99265 169.69184,210.78676 C 170.26535,211.53677 170.55211,212.57353 170.55214,213.89706 C 170.55211,214.95588 170.26535,215.83823 169.69184,216.54411 C 169.16241,217.25 168.36829,217.60294 167.30949,217.60294 L 153.34625,217.60294 C 152.55213,217.60294 151.78007,217.29412 151.03008,216.67647 C 150.32419,216.10294 149.97125,215.39706 149.97125,214.55882 L 149.97125,186.36764 z M 174.8804,213.63235 L 174.6157,186.69853 C 174.61569,185.41915 175.01275,184.38238 175.80687,183.58823 C 176.55687,182.9265 177.57157,182.59562 178.85099,182.59558 C 180.13039,182.59562 181.12304,182.9265 181.82893,183.58823 C 182.5348,184.25003 182.88774,185.15444 182.88776,186.30147 L 182.55687,213.63235 C 182.55686,214.86765 182.18186,215.86029 181.43187,216.61029 C 180.68186,217.31617 179.79951,217.66912 178.78481,217.66911 C 177.63775,217.66912 176.71128,217.31617 176.0054,216.61029 C 175.2554,215.90441 174.8804,214.91176 174.8804,213.63235 L 174.8804,213.63235 z M 188.19446,186.36764 C 188.19446,185.48532 188.50328,184.64709 189.12093,183.85294 C 189.73857,182.97062 190.44446,182.52944 191.23858,182.52941 L 203.2827,182.52941 C 205.44444,182.52944 207.31944,183.45591 208.9077,185.30882 C 210.49591,187.16179 211.29002,189.23532 211.29005,191.52941 C 211.29002,194.39708 210.01061,196.62502 207.45182,198.21323 C 209.70179,198.56619 211.42238,199.5809 212.61358,201.25735 C 213.67238,202.75736 214.20179,204.6103 214.20182,206.81617 C 214.20179,209.63971 213.40767,212.1103 211.81946,214.22794 C 210.05473,216.56617 207.84885,217.73529 205.20182,217.73529 L 191.23858,217.73529 C 190.44446,217.73529 189.73857,217.49264 189.12093,217.00735 C 188.50328,216.52206 188.19446,215.88235 188.19446,215.08823 L 188.19446,186.36764 z M 202.09152,202.18382 L 196.26799,202.18382 L 196.26799,210.78676 L 202.09152,210.78676 C 203.90033,210.78677 205.22385,210.41177 206.06211,209.66176 C 206.76797,208.95589 207.12091,208.13971 207.12093,207.21323 C 207.12091,206.63971 207.01062,205.91177 206.79005,205.02941 C 206.56944,204.14707 206.30474,203.55148 205.99593,203.24264 C 205.29003,202.53678 203.98856,202.18384 202.09152,202.18382 L 202.09152,202.18382 z M 200.90035,190.20588 L 196.26799,190.20588 L 196.26799,197.55147 L 202.09152,197.55147 C 203.41503,197.55149 204.0768,196.5809 204.07682,194.6397 C 204.0768,193.05149 203.85621,191.90443 203.41505,191.19853 C 203.01797,190.53679 202.17974,190.20591 200.90035,190.20588 L 200.90035,190.20588 z M 217.9303,185.11029 C 217.93029,184.49268 218.195,183.80885 218.72442,183.05882 C 219.34206,182.35297 219.9597,182.00003 220.57736,182 L 233.6803,182 C 236.28322,182.00003 238.55528,183.08091 240.49648,185.24264 C 242.39351,187.49267 243.34204,189.91914 243.34207,192.52205 C 243.34204,194.55149 242.72439,196.38237 241.48912,198.0147 C 240.12145,199.73531 238.04792,201.0809 235.26854,202.05147 L 243.14354,209.99264 C 243.98174,210.96324 244.40086,212 244.40089,213.10294 C 244.40086,214.16177 244.04792,215.04412 243.34207,215.75 C 243.07733,216.10294 242.64718,216.54412 242.05162,217.07353 C 241.45601,217.60294 240.93763,217.86764 240.49648,217.86764 C 238.99645,217.86764 237.62881,217.11765 236.39354,215.61764 L 225.93765,202.77941 L 225.93765,213.30147 C 225.93764,214.58088 225.51852,215.68382 224.6803,216.61029 C 223.88617,217.40441 222.91558,217.80147 221.76853,217.80147 C 220.66559,217.80147 219.76118,217.40441 219.0553,216.61029 C 218.30529,215.90441 217.93029,214.80147 217.9303,213.30147 L 217.9303,185.11029 z M 225.93765,188.88235 L 225.93765,197.02206 L 231.82736,197.02206 C 233.45969,197.02208 234.58469,196.62502 235.20236,195.83088 C 235.8641,195.03678 236.21704,193.97796 236.26118,192.65441 C 236.26116,191.90443 235.90822,191.04414 235.20236,190.07353 C 234.58469,189.27944 233.45969,188.88238 231.82736,188.88235 L 225.93765,188.88235 z M 248.62779,185.83823 C 248.62778,184.77944 248.9366,183.94121 249.55426,183.32352 C 250.26013,182.70591 251.07631,182.39709 252.00279,182.39705 L 264.84102,182.39705 C 266.03218,182.39709 266.93659,182.83827 267.55426,183.72058 C 268.17188,184.55885 268.4807,185.50738 268.48073,186.56617 C 268.4807,187.75738 268.23806,188.70591 267.75279,189.41176 C 267.22335,190.11767 266.47335,190.47061 265.50279,190.47058 L 254.91455,190.07353 L 254.91455,196.82353 L 264.84102,196.42647 C 265.76747,196.42649 266.49541,196.80149 267.02485,197.55147 C 267.59835,198.30149 267.88512,199.33825 267.88514,200.66176 C 267.88512,201.7206 267.66453,202.62501 267.22338,203.375 C 266.69394,204.08089 266.01012,204.43383 265.1719,204.43382 L 254.91455,204.10294 L 254.91455,210.32353 L 264.84102,209.86029 C 266.07629,209.8603 267.02482,210.25736 267.68661,211.05147 C 268.34835,211.75736 268.67923,212.79412 268.67926,214.16176 C 268.67923,215.08824 268.41453,215.88235 267.88514,216.54411 C 267.39982,217.25 266.76012,217.60294 265.96602,217.60294 L 251.27484,217.60294 C 250.74543,217.60294 250.1719,217.29412 249.55426,216.67647 C 248.9366,216.19118 248.62778,215.59559 248.62779,214.8897 L 248.62779,185.83823 z M 277.75803,209.2647 C 278.99331,209.26471 279.9639,209.68383 280.66979,210.52206 C 281.37566,211.44853 281.7286,212.46324 281.72861,213.56617 C 281.7286,214.66912 281.39772,215.61765 280.73597,216.41176 C 279.98596,217.29412 278.99331,217.73529 277.75803,217.73529 C 276.43449,217.73529 275.37567,217.29412 274.58155,216.41176 C 273.87567,215.48529 273.52273,214.49265 273.52273,213.43382 C 273.52273,212.33088 273.89773,211.3603 274.64773,210.52206 C 275.35361,209.68383 276.39037,209.26471 277.75803,209.2647 L 277.75803,209.2647 z M 286.59468,213.89706 L 286.59468,186.03676 C 286.59468,183.74268 287.58732,182.59562 289.57262,182.59558 L 303.1388,182.59558 C 304.24172,182.59562 305.12407,182.99268 305.78586,183.78676 C 306.40348,184.62503 306.71231,185.5515 306.71233,186.56617 C 306.71231,187.88973 306.49172,188.8162 306.05057,189.34558 C 305.56525,190.00738 304.88142,190.33826 303.99909,190.33823 L 293.21233,189.94117 L 293.21233,195.56617 L 302.74174,195.16911 C 303.75643,195.16914 304.52848,195.52208 305.05792,196.22794 C 305.63142,196.93384 305.91819,197.94855 305.91821,199.27206 C 305.91819,200.19854 305.65348,200.99266 305.12409,201.65441 C 304.55054,202.44854 303.75643,202.8456 302.74174,202.84558 L 293.21233,202.84558 L 293.21233,213.89706 C 293.21232,215.13235 292.81526,216.08088 292.02115,216.74264 C 291.27114,217.40441 290.38879,217.73529 289.37409,217.73529 C 288.93291,217.73529 288.61306,217.65809 288.41453,217.50367 C 288.216,217.34926 287.98438,217.09559 287.71968,216.74264 C 286.96968,216.125 286.59468,215.17647 286.59468,213.89706 L 286.59468,213.89706 z M 324.05638,186.89705 L 329.41667,202.77941 L 335.17403,186.89705 C 335.70341,185.57356 336.45341,184.55885 337.42403,183.85294 C 338.39458,183.14709 339.4534,182.79415 340.6005,182.79411 C 341.79164,182.79415 342.85046,183.19121 343.77697,183.98529 C 344.79163,184.86768 345.43134,186.10297 345.69608,187.69117 L 350.06373,213.63235 L 350.06373,214.49264 C 350.06369,215.55147 349.7328,216.41176 349.07108,217.07353 C 348.32104,217.69117 347.19604,218 345.69608,218 C 344.72546,218 343.86516,217.69117 343.1152,217.07353 C 342.62987,216.67647 342.12252,214.84559 341.59314,211.58088 L 339.60785,195.36764 L 339.54167,195.36764 C 339.40928,195.36767 339.25487,195.41178 339.07844,195.5 L 334.04903,211.58088 C 332.68135,215.81618 331.26959,217.93382 329.81373,217.93382 C 328.44606,217.93382 327.01224,215.81618 325.51226,211.58088 L 320.28432,196.49264 L 320.08579,196.16176 L 320.01961,196.16176 C 319.88724,196.16178 319.68872,196.25002 319.42402,196.42647 L 318.43138,210.3897 C 318.16666,212.33088 317.65931,214.08456 316.90932,215.65073 C 316.15931,217.21691 315.23284,218 314.12991,218 C 312.27696,218 310.97549,217.625 310.22549,216.875 C 309.43137,216.16912 309.03431,215.26471 309.03432,214.16176 L 309.03432,213.56617 L 313.53432,187.69117 C 313.79902,186.14709 314.43872,184.93385 315.45344,184.05147 C 316.55637,183.16915 317.70342,182.72797 318.89461,182.72794 C 321.36518,182.72797 323.08577,184.11768 324.05638,186.89705 L 324.05638,186.89705 z"
           id="text3183" />
      </g>
    </g>
  </g>
</svg>
