<?xml version="1.0" encoding="UTF-8" standalone="no"?>
<!-- Created with Inkscape (http://www.inkscape.org/) -->
<svg
   xmlns:dc="http://purl.org/dc/elements/1.1/"
   xmlns:cc="http://creativecommons.org/ns#"
   xmlns:rdf="http://www.w3.org/1999/02/22-rdf-syntax-ns#"
   xmlns:svg="http://www.w3.org/2000/svg"
   xmlns="http://www.w3.org/2000/svg"
   xmlns:xlink="http://www.w3.org/1999/xlink"
   xmlns:sodipodi="http://sodipodi.sourceforge.net/DTD/sodipodi-0.dtd"
   xmlns:inkscape="http://www.inkscape.org/namespaces/inkscape"
   width="336.3808"
   height="415.1727"
   id="svg6808"
   sodipodi:version="0.32"
   inkscape:version="0.46"
   version="1.0"
   sodipodi:docname="bg.svg"
   inkscape:output_extension="org.inkscape.output.svg.inkscape">
  <defs
     id="defs6810">
    <linearGradient
       id="linearGradient3863">
      <stop
         id="stop3865"
         offset="0"
         style="stop-color: rgb(78, 154, 6); stop-opacity: 1;" />
      <stop
         id="stop3867"
         offset="1"
         style="stop-color: rgb(162, 154, 6); stop-opacity: 0.419847;" />
    </linearGradient>
    <linearGradient
       inkscape:collect="always"
       id="linearGradient5302">
      <stop
         style="stop-color: rgb(194, 191, 174); stop-opacity: 1;"
         offset="0"
         id="stop5304" />
      <stop
         style="stop-color: rgb(194, 191, 174); stop-opacity: 0;"
         offset="1"
         id="stop5306" />
    </linearGradient>
    <linearGradient
       inkscape:collect="always"
       id="linearGradient5294">
      <stop
         style="stop-color: rgb(220, 222, 187); stop-opacity: 1;"
         offset="0"
         id="stop5296" />
      <stop
         style="stop-color: rgb(220, 222, 187); stop-opacity: 0;"
         offset="1"
         id="stop5298" />
    </linearGradient>
    <linearGradient
       inkscape:collect="always"
       id="linearGradient5286">
      <stop
         style="stop-color: rgb(220, 222, 187); stop-opacity: 1;"
         offset="0"
         id="stop5288" />
      <stop
         style="stop-color: rgb(220, 222, 187); stop-opacity: 0;"
         offset="1"
         id="stop5290" />
    </linearGradient>
    <linearGradient
       inkscape:collect="always"
       id="linearGradient4444">
      <stop
         style="stop-color: rgb(229, 92, 15); stop-opacity: 1;"
         offset="0"
         id="stop4446" />
      <stop
         style="stop-color: rgb(229, 92, 15); stop-opacity: 0;"
         offset="1"
         id="stop4448" />
    </linearGradient>
    <linearGradient
       inkscape:collect="always"
       id="linearGradient3977">
      <stop
         style="stop-color: rgb(58, 45, 73); stop-opacity: 1;"
         offset="0"
         id="stop3979" />
      <stop
         style="stop-color: rgb(58, 45, 73); stop-opacity: 0;"
         offset="1"
         id="stop3981" />
    </linearGradient>
    <path
       sodipodi:type="arc"
       style="opacity:1;fill:none;fill-opacity:1;fill-rule:nonzero;stroke:none;stroke-width:0.727;stroke-linecap:round;stroke-linejoin:round;marker:none;stroke-miterlimit:4;stroke-dasharray:none;stroke-dashoffset:0;stroke-opacity:1;visibility:visible;display:inline;overflow:visible"
       id="path8602"
       sodipodi:cx="-1748.3215"
       sodipodi:cy="-427.42615"
       sodipodi:rx="84.49926"
       sodipodi:ry="21.920311"
       d="M -1663.8223,-427.42615 A 84.49926,21.920311 0 1 1 -1832.8208,-427.42615 A 84.49926,21.920311 0 1 1 -1663.8223,-427.42615 z"
       transform="matrix(-0.992306,-6.68354e-2,4.77104e-2,-0.850346,-1324.29,-221.489)" />
    <inkscape:perspective
       sodipodi:type="inkscape:persp3d"
       inkscape:vp_x="0 : 526.18109 : 1"
       inkscape:vp_y="0 : 1000 : 0"
       inkscape:vp_z="744.09448 : 526.18109 : 1"
       inkscape:persp3d-origin="372.04724 : 350.78739 : 1"
       id="perspective6816" />
    <linearGradient
       inkscape:collect="always"
       xlink:href="#linearGradient3977"
       id="linearGradient7798"
       gradientUnits="userSpaceOnUse"
       gradientTransform="matrix(0.919814,0,0,0.953995,34.004,33.2983)"
       x1="375.01926"
       y1="812.81995"
       x2="394.8259"
       y2="741.47198" />
    <linearGradient
       inkscape:collect="always"
       xlink:href="#linearGradient4444"
       id="linearGradient7800"
       gradientUnits="userSpaceOnUse"
       gradientTransform="translate(26.4488,7.31915)"
       x1="854.68817"
       y1="767.83759"
       x2="862.73108"
       y2="682.89478" />
    <linearGradient
       inkscape:collect="always"
       xlink:href="#linearGradient5286"
       id="linearGradient7802"
       gradientUnits="userSpaceOnUse"
       gradientTransform="matrix(0.651536,0,0,0.651536,241.583,-323.414)"
       x1="97.686966"
       y1="733.38245"
       x2="96.204613"
       y2="706.56543" />
    <linearGradient
       inkscape:collect="always"
       xlink:href="#linearGradient5294"
       id="linearGradient7804"
       gradientUnits="userSpaceOnUse"
       gradientTransform="matrix(0.651536,0,0,0.651536,241.583,-323.414)"
       x1="137.35542"
       y1="727.31366"
       x2="105.80354"
       y2="698.87396" />
    <linearGradient
       inkscape:collect="always"
       xlink:href="#linearGradient5302"
       id="linearGradient7806"
       gradientUnits="userSpaceOnUse"
       gradientTransform="matrix(0.651536,0,0,0.651536,241.583,-323.414)"
       x1="113.47773"
       y1="753.75854"
       x2="89.670761"
       y2="738.6123" />
    <linearGradient
       inkscape:collect="always"
       xlink:href="#linearGradient3863"
       id="linearGradient7808"
       gradientUnits="userSpaceOnUse"
       gradientTransform="translate(0.293662,-1.03375e-7)"
       x1="271.36902"
       y1="451.86081"
       x2="307.43311"
       y2="402.52557" />
    <linearGradient
       inkscape:collect="always"
       xlink:href="#linearGradient3863"
       id="linearGradient7810"
       gradientUnits="userSpaceOnUse"
       gradientTransform="translate(0.293662,-1.03374e-7)"
       x1="271.36902"
       y1="451.86081"
       x2="307.43311"
       y2="402.52557" />
    <linearGradient
       inkscape:collect="always"
       xlink:href="#linearGradient3977"
       id="linearGradient8547"
       gradientUnits="userSpaceOnUse"
       gradientTransform="matrix(0.919814,0,0,0.953995,34.004,33.2983)"
       x1="375.01926"
       y1="812.81995"
       x2="394.8259"
       y2="741.47198" />
    <linearGradient
       inkscape:collect="always"
       xlink:href="#linearGradient4444"
       id="linearGradient8549"
       gradientUnits="userSpaceOnUse"
       gradientTransform="translate(26.4488,7.31915)"
       x1="854.68817"
       y1="767.83759"
       x2="862.73108"
       y2="682.89478" />
    <linearGradient
       inkscape:collect="always"
       xlink:href="#linearGradient5286"
       id="linearGradient8551"
       gradientUnits="userSpaceOnUse"
       gradientTransform="matrix(0.651536,0,0,0.651536,241.583,-323.414)"
       x1="97.686966"
       y1="733.38245"
       x2="96.204613"
       y2="706.56543" />
    <linearGradient
       inkscape:collect="always"
       xlink:href="#linearGradient5294"
       id="linearGradient8553"
       gradientUnits="userSpaceOnUse"
       gradientTransform="matrix(0.651536,0,0,0.651536,241.583,-323.414)"
       x1="137.35542"
       y1="727.31366"
       x2="105.80354"
       y2="698.87396" />
    <linearGradient
       inkscape:collect="always"
       xlink:href="#linearGradient5302"
       id="linearGradient8555"
       gradientUnits="userSpaceOnUse"
       gradientTransform="matrix(0.651536,0,0,0.651536,241.583,-323.414)"
       x1="113.47773"
       y1="753.75854"
       x2="89.670761"
       y2="738.6123" />
    <linearGradient
       inkscape:collect="always"
       xlink:href="#linearGradient3863"
       id="linearGradient8557"
       gradientUnits="userSpaceOnUse"
       gradientTransform="translate(0.293662,-1.03375e-7)"
       x1="271.36902"
       y1="451.86081"
       x2="307.43311"
       y2="402.52557" />
    <linearGradient
       inkscape:collect="always"
       xlink:href="#linearGradient3863"
       id="linearGradient8559"
       gradientUnits="userSpaceOnUse"
       gradientTransform="translate(0.293662,-1.03374e-7)"
       x1="271.36902"
       y1="451.86081"
       x2="307.43311"
       y2="402.52557" />
  </defs>
  <sodipodi:namedview
     id="base"
     pagecolor="#ffffff"
     bordercolor="#666666"
     borderopacity="1.0"
     inkscape:pageopacity="0.0"
     inkscape:pageshadow="2"
     inkscape:zoom="0.98994949"
     inkscape:cx="98.468543"
     inkscape:cy="178.327"
     inkscape:document-units="px"
     inkscape:current-layer="g6500"
     showgrid="false"
     inkscape:window-width="1680"
     inkscape:window-height="974"
     inkscape:window-x="0"
     inkscape:window-y="25" />
  <metadata
     id="metadata6813">
    <rdf:RDF>
      <cc:Work
         rdf:about="">
        <dc:format>image/svg+xml</dc:format>
        <dc:type
           rdf:resource="http://purl.org/dc/dcmitype/StillImage" />
      </cc:Work>
    </rdf:RDF>
  </metadata>
  <g
     inkscape:label="Capa 1"
     inkscape:groupmode="layer"
     id="layer1"
     transform="translate(-214.18198,-321.77001)">
    <g
       id="g6500"
       transform="matrix(2.81247,0.387511,-0.387511,2.81247,1843.85,1154.37)">
      <rect
         style="opacity:0.09124086;fill:#ffffff;fill-opacity:1;stroke:none;stroke-width:1;stroke-miterlimit:4;stroke-dasharray:none;stroke-opacity:1"
         id="rect3290"
         width="118.48396"
         height="146.23697"
         x="-574.02069"
         y="-293.26807"
         transform="matrix(0.9906409,-0.1364936,0.1364936,0.9906409,0,0)"
         inkscape:export-filename="/home/mattl/libre.fm/gobbler/i/bg.png"
         inkscape:export-xdpi="90"
         inkscape:export-ydpi="90" />
      <g
         id="g2490"
         style="opacity:0.09124086"
         transform="matrix(0.8660254,-0.5,0.5,0.8660254,0.5610194,-291.20111)"
         inkscape:export-filename="/home/mattl/libre.fm/gobbler/i/bg.png"
         inkscape:export-xdpi="90"
         inkscape:export-ydpi="90">
        <g
           transform="matrix(0.7942115,-9.4108252e-2,9.4108252e-2,0.7942115,144.58068,41.32007)"
           id="g6503">
          <g
             id="g6505"
             transform="matrix(0.996082,-6.80163e-4,-6.80163e-4,1.01541,-5.28029,3.10551)">
            <path
               style="fill:#a40000;fill-opacity:1;fill-rule:nonzero;stroke:none;stroke-width:10.91399956;stroke-linecap:butt;stroke-linejoin:miter;marker:none;stroke-miterlimit:4;stroke-dasharray:none;stroke-dashoffset:0;stroke-opacity:1;visibility:visible;display:inline;overflow:visible"
               d="M -814.49385,-413.60708 C -822.07573,-412.52789 -829.64316,-398.91829 -831.39165,-383.22376 C -831.5187,-382.08336 -831.60672,-380.95927 -831.66671,-379.86283 C -836.93658,-385.30738 -843.14219,-388.17637 -846.79906,-386.46676 C -851.2823,-384.37083 -850.24986,-376.18776 -844.51594,-368.20697 C -838.782,-360.22617 -830.50552,-355.43192 -826.02231,-357.52786 C -825.82299,-357.62104 -825.64301,-357.76599 -825.46536,-357.88266 C -824.0901,-356.92086 -822.53978,-356.49027 -820.83543,-356.73286 C -813.25354,-357.81206 -805.65511,-371.42521 -803.90658,-387.11975 C -802.15806,-402.81428 -806.91196,-414.68627 -814.49385,-413.60708 z"
               id="path6507" />
            <path
               id="path6509"
               d="M -814.36013,-404.76429 C -820.75853,-404.30402 -827.9809,-393.22041 -830.48699,-380.02044 C -830.66908,-379.06129 -830.81753,-378.11364 -830.94073,-377.18775 C -834.97471,-382.11924 -839.96133,-384.92346 -843.12672,-383.69342 C -847.00742,-382.18542 -846.69191,-375.18645 -842.43994,-368.07707 C -838.18796,-360.96768 -831.60184,-356.40719 -827.72117,-357.9152 C -827.54864,-357.98224 -827.38878,-358.09432 -827.23277,-358.18258 C -826.1494,-357.28478 -824.88454,-356.82679 -823.44623,-356.93026 C -817.04781,-357.39055 -809.79933,-368.47531 -807.29322,-381.67529 C -804.78709,-394.87526 -807.96171,-405.22457 -814.36013,-404.76429 z"
               style="fill:#cc0000;fill-opacity:1;fill-rule:nonzero;stroke:none;stroke-width:10.91399956;stroke-linecap:butt;stroke-linejoin:miter;marker:none;stroke-miterlimit:4;stroke-dasharray:none;stroke-dashoffset:0;stroke-opacity:1;visibility:visible;display:inline;overflow:visible" />
          </g>
        </g>
        <path
           style="fill:#a40000;fill-opacity:1;fill-rule:nonzero;stroke:none;stroke-width:10.91399956;stroke-linecap:butt;stroke-linejoin:miter;marker:none;stroke-miterlimit:4;stroke-dasharray:none;stroke-dashoffset:0;stroke-opacity:1;visibility:visible;display:inline;overflow:visible"
           d="M -545.69769,-174.71226 C -558.55312,-172.90412 -568.08766,-161.56399 -566.34066,-149.14344 C -565.99243,-146.66757 -564.71875,-144.13961 -563.63936,-142.01883 C -575.86794,-138.10005 -584.12177,-126.15722 -582.7897,-113.03287 C -581.50571,-100.38206 -571.71747,-90.623 -559.58386,-88.756141 C -552.15746,-83.418108 -542.61683,-80.811523 -532.68683,-82.208202 C -523.72478,-83.468731 -515.95151,-87.768901 -510.35818,-93.873886 C -500.42485,-98.654379 -494.05259,-109.21063 -495.21628,-120.67602 C -496.25612,-130.92121 -503.03332,-139.20948 -512.09051,-142.73601 C -514.30722,-144.80416 -516.78021,-146.60871 -519.46569,-148.07259 C -518.98537,-150.4579 -518.88777,-152.95377 -519.24406,-155.4869 C -520.99104,-167.90744 -532.84228,-176.52039 -545.69769,-174.71226 z"
           id="path6511"
           sodipodi:nodetypes="cscscscsccsc" />
        <g
           id="g6513"
           transform="matrix(0.8099044,-6.5469267e-2,6.5469267e-2,0.8099044,149.71348,73.820175)">
          <path
             transform="matrix(0.747462,0,0,0.764298,49.9817,-77.65)"
             d="M -1153,-294 A 42,42 0 1 1 -1237,-294 A 42,42 0 1 1 -1153,-294 z"
             sodipodi:ry="42"
             sodipodi:rx="42"
             sodipodi:cy="-294"
             sodipodi:cx="-1195"
             id="path6515"
             style="opacity:1;fill:#f3b700;fill-opacity:1;fill-rule:nonzero;stroke:none;stroke-width:10.91399956;stroke-linecap:butt;stroke-linejoin:miter;marker:none;stroke-miterlimit:4;stroke-dasharray:none;stroke-dashoffset:0;stroke-opacity:1;visibility:visible;display:inline;overflow:visible"
             sodipodi:type="arc" />
          <path
             sodipodi:type="arc"
             style="opacity:1;fill:#f3b700;fill-opacity:1;fill-rule:nonzero;stroke:none;stroke-width:10.91399956;stroke-linecap:butt;stroke-linejoin:miter;marker:none;stroke-miterlimit:4;stroke-dasharray:none;stroke-dashoffset:0;stroke-opacity:1;visibility:visible;display:inline;overflow:visible"
             id="path6517"
             sodipodi:cx="-1195"
             sodipodi:cy="-294"
             sodipodi:rx="42"
             sodipodi:ry="42"
             d="M -1153,-294 A 42,42 0 1 1 -1237,-294 A 42,42 0 1 1 -1153,-294 z"
             transform="matrix(0.726417,0,0,0.742779,62.2752,-82.2842)" />
        </g>
        <path
           transform="matrix(0.5205926,-6.1686404e-2,6.0498176e-2,0.5105646,97.711797,-75.093841)"
           sodipodi:type="arc"
           style="fill:#f3b700;fill-opacity:1;fill-rule:nonzero;stroke:none;stroke-width:10.91399956;stroke-linecap:butt;stroke-linejoin:miter;marker:none;stroke-miterlimit:4;stroke-dasharray:none;stroke-dashoffset:0;stroke-opacity:1;visibility:visible;display:inline;overflow:visible"
           id="path6519"
           sodipodi:cx="-1195"
           sodipodi:cy="-294"
           sodipodi:rx="42"
           sodipodi:ry="42"
           d="M -1153,-294 A 42,42 0 1 1 -1237,-294 A 42,42 0 1 1 -1153,-294 z" />
        <path
           sodipodi:type="arc"
           style="fill:#ffdf50;fill-opacity:1;fill-rule:nonzero;stroke:none;stroke-width:10.91399956;stroke-linecap:butt;stroke-linejoin:miter;marker:none;stroke-miterlimit:4;stroke-dasharray:none;stroke-dashoffset:0;stroke-opacity:1;visibility:visible;display:inline;overflow:visible"
           id="path6521"
           sodipodi:cx="-1195"
           sodipodi:cy="-294"
           sodipodi:rx="42"
           sodipodi:ry="42"
           d="M -1153,-294 A 42,42 0 1 1 -1237,-294 A 42,42 0 1 1 -1153,-294 z"
           transform="matrix(0.7942115,-9.4108252e-2,9.2523767e-2,0.7808398,439.47606,0.9917618)" />
        <path
           d="M -1153,-294 A 42,42 0 1 1 -1237,-294 A 42,42 0 1 1 -1153,-294 z"
           sodipodi:ry="42"
           sodipodi:rx="42"
           sodipodi:cy="-294"
           sodipodi:cx="-1195"
           id="path6523"
           style="fill:#ffdf50;fill-opacity:1;fill-rule:nonzero;stroke:none;stroke-width:10.91399956;stroke-linecap:butt;stroke-linejoin:miter;marker:none;stroke-miterlimit:4;stroke-dasharray:none;stroke-dashoffset:0;stroke-opacity:1;visibility:visible;display:inline;overflow:visible"
           sodipodi:type="arc"
           transform="matrix(0.4871647,-5.7725464e-2,6.0498176e-2,0.5105646,58.137796,-68.79386)" />
        <g
           id="g6525"
           transform="matrix(0.9977171,-0.5927351,0.4944512,0.8381726,452.69835,-357.37275)">
          <g
             id="g6527">
            <path
               style="opacity:1;fill:#ffffff;fill-opacity:1;fill-rule:nonzero;stroke:none;stroke-width:10.91399956;stroke-linecap:butt;stroke-linejoin:miter;marker:none;stroke-miterlimit:4;stroke-dasharray:none;stroke-dashoffset:0;stroke-opacity:1;visibility:visible;display:inline;overflow:visible"
               d="M -573.28125,-181.15625 C -575.93171,-181.17313 -578.60365,-180.28963 -580.8125,-178.4375 C -585.86131,-174.20406 -586.60495,-166.53809 -582.46875,-161.34375 C -578.33253,-156.14941 -570.86132,-155.39157 -565.8125,-159.625 C -564.99032,-160.3144 -564.30998,-161.09219 -563.71875,-161.9375 C -562.51729,-161.64976 -561.26762,-161.63454 -560,-162 C -555.59435,-163.27015 -552.95036,-168.33722 -554.09375,-173.3125 C -555.23713,-178.28778 -559.71933,-181.3014 -564.125,-180.03125 C -564.97279,-179.78683 -565.76565,-179.40426 -566.46875,-178.90625 C -568.48471,-180.38196 -570.87601,-181.14093 -573.28125,-181.15625 z"
               transform="matrix(0.775855,0.449971,-0.374928,0.923844,-448.797,74.453)"
               id="path6529" />
          </g>
        </g>
        <g
           transform="matrix(1.1026986,0.1561676,-0.1561676,1.1026986,81.224466,128.35574)"
           id="g6531">
          <path
             id="path6533"
             d="M -576.27338,-160.10113 C -576.54132,-160.07966 -576.82511,-160.03929 -577.1139,-159.99909 C -577.57933,-159.50334 -578.19935,-159.1418 -578.86498,-158.75258 C -578.8719,-158.74854 -578.8882,-158.75517 -578.8951,-158.75112 C -579.1793,-158.78152 -579.47668,-158.81368 -579.77318,-158.80005 C -584.81907,-157.93985 -590.75276,-150.27242 -593.01283,-141.71439 C -595.27291,-133.15639 -593.00202,-126.92062 -587.9561,-127.78082 C -585.78369,-128.15116 -583.45253,-129.7828 -581.31666,-132.19904 C -581.31152,-132.18659 -581.29019,-132.18245 -581.28505,-132.17002 C -577.40472,-122.79295 -570.76619,-118.99109 -566.46734,-123.66231 C -564.56729,-125.72695 -563.44687,-129.12212 -563.11984,-133.05432 C -559.32797,-131.23461 -555.64773,-131.21484 -553.712,-133.32894 C -550.91111,-136.38793 -552.81626,-142.80231 -557.97171,-147.63745 C -561.1414,-150.61024 -564.80504,-152.26511 -567.80664,-152.41496 C -569.08539,-155.58344 -569.92447,-159.40908 -574.1271,-160.05281 C -574.76359,-160.15031 -575.46952,-160.16554 -576.27338,-160.10113 z"
             style="fill:#a40000;fill-opacity:1;fill-rule:nonzero;stroke:none;stroke-width:10.91399956;stroke-linecap:butt;stroke-linejoin:miter;marker:none;stroke-miterlimit:4;stroke-dasharray:none;stroke-dashoffset:0;stroke-opacity:1;visibility:visible;display:inline;overflow:visible" />
          <path
             id="path6535"
             d="M -575.11385,-157.74505 C -576.0077,-157.71087 -577.00346,-157.50926 -578.05313,-157.07258 C -578.42864,-157.19456 -578.81716,-157.30564 -579.2574,-157.38489 C -583.60479,-157.03734 -589.0152,-150.62123 -591.31847,-143.05683 C -593.62175,-135.49247 -591.92542,-129.62859 -587.57803,-129.97615 C -585.32613,-130.15617 -582.82258,-131.97019 -580.58396,-134.72379 C -580.57088,-134.68926 -580.55988,-134.63614 -580.54667,-134.60165 C -577.30263,-126.12743 -571.39543,-122.16455 -567.40967,-125.76766 C -565.55987,-127.43986 -564.4653,-130.46127 -564.12488,-134.05103 C -560.97503,-132.78551 -558.01369,-132.88562 -556.39352,-134.61984 C -553.86107,-137.33056 -555.58153,-142.99293 -560.23752,-147.26146 C -562.44978,-149.28964 -564.92531,-150.62702 -567.18898,-151.19457 C -568.36001,-153.9654 -570.57579,-157.4112 -574.2681,-157.72494 C -574.54753,-157.74868 -574.81591,-157.75644 -575.11385,-157.74505 z"
             style="fill:#cc0000;fill-opacity:1;fill-rule:nonzero;stroke:none;stroke-width:10.91399956;stroke-linecap:butt;stroke-linejoin:miter;marker:none;stroke-miterlimit:4;stroke-dasharray:none;stroke-dashoffset:0;stroke-opacity:1;visibility:visible;display:inline;overflow:visible" />
        </g>
        <g
           id="g6557"
           transform="matrix(-1.0721982,-0.6701004,0.5773626,-0.983044,-1234.9842,-993.93443)">
          <path
             style="fill:#a40000;fill-rule:evenodd;stroke:none;stroke-width:1px;stroke-linecap:butt;stroke-linejoin:miter;stroke-opacity:1"
             d="M -840.92544,-319.37841 C -836.99526,-327.4827 -814.7485,-331.89299 -809.45301,-323.66309 C -804.15753,-315.43319 -817.7324,-295.06479 -826.88633,-295.15925 C -836.04026,-295.2537 -844.8556,-311.27412 -840.92544,-319.37841 z"
             id="path6559"
             sodipodi:nodetypes="csss" />
          <path
             sodipodi:nodetypes="csss"
             id="path6561"
             d="M -839.55627,-318.59415 C -835.97122,-325.93889 -815.63688,-329.91588 -810.78741,-322.44809 C -805.93794,-314.9803 -818.32831,-296.52454 -826.69723,-296.61927 C -835.06615,-296.714 -843.14132,-311.24941 -839.55627,-318.59415 z"
             style="fill:#cc0000;fill-rule:evenodd;stroke:none;stroke-width:1px;stroke-linecap:butt;stroke-linejoin:miter;stroke-opacity:1" />
        </g>
        <g
           transform="matrix(0.4036905,-6.6091095e-2,7.1421074e-2,0.4362462,-321.2785,-61.031851)"
           id="g6563">
          <path
             sodipodi:type="arc"
             style="opacity:1;fill:#f3b700;fill-opacity:1;fill-rule:nonzero;stroke:none;stroke-width:0.76599997;stroke-linecap:butt;stroke-linejoin:miter;marker:none;stroke-miterlimit:4;stroke-dasharray:none;stroke-dashoffset:0;stroke-opacity:1;visibility:visible;display:inline;overflow:visible"
             id="path6565"
             sodipodi:cx="-498.3335"
             sodipodi:cy="-139.81047"
             sodipodi:rx="10.783379"
             sodipodi:ry="7.9549513"
             d="M -487.55012,-139.81047 A 10.783379,7.9549513 0 1 1 -509.11687,-139.81047 A 10.783379,7.9549513 0 1 1 -487.55012,-139.81047 z" />
          <path
             sodipodi:type="arc"
             style="opacity:1;fill:#ffdf50;fill-opacity:1;fill-rule:nonzero;stroke:none;stroke-width:0.76599997;stroke-linecap:butt;stroke-linejoin:miter;marker:none;stroke-miterlimit:4;stroke-dasharray:none;stroke-dashoffset:0;stroke-opacity:1;visibility:visible;display:inline;overflow:visible"
             id="path6567"
             sodipodi:cx="-509.47043"
             sodipodi:cy="-113.29397"
             sodipodi:rx="11.313708"
             sodipodi:ry="6.5407376"
             d="M -498.15672,-113.29397 A 11.313708,6.5407376 0 1 1 -520.78414,-113.29397 A 11.313708,6.5407376 0 1 1 -498.15672,-113.29397 z"
             transform="matrix(0.772337,0,0,0.840717,-109.092,-43.9846)" />
        </g>
        <g
           id="g6569"
           transform="matrix(0.996573,-8.27232e-2,8.27232e-2,0.996573,-82.937453,-30.785888)">
          <path
             style="fill:none;fill-rule:evenodd;stroke:#a40000;stroke-width:1.13100004;stroke-linecap:round;stroke-linejoin:miter;stroke-miterlimit:4;stroke-dasharray:none;stroke-opacity:1"
             d="M -463.15369,-165.93053 C -463.15369,-165.93053 -455.6581,-182.44867 -444.69425,-168.82502"
             id="path6571"
             sodipodi:nodetypes="cs" />
          <path
             sodipodi:nodetypes="cs"
             id="path6573"
             d="M -431.25161,-169.60943 C -431.25161,-169.60943 -435.33009,-178.2762 -441.32035,-171.13886"
             style="fill:none;fill-rule:evenodd;stroke:#a40000;stroke-width:0.92589402;stroke-linecap:round;stroke-linejoin:miter;stroke-miterlimit:4;stroke-dasharray:none;stroke-opacity:1" />
        </g>
        <path
           transform="matrix(0.3256728,-4.4872221e-2,4.4872221e-2,0.3256728,-498.14607,-218.57967)"
           d="M -118.18785,180.13394 A 7.5761442,7.5761442 0 1 1 -133.34014,180.13394 A 7.5761442,7.5761442 0 1 1 -118.18785,180.13394 z"
           sodipodi:ry="7.5761442"
           sodipodi:rx="7.5761442"
           sodipodi:cy="180.13394"
           sodipodi:cx="-125.76399"
           id="path2486"
           style="opacity:1;fill:#000000;fill-opacity:1;stroke:none;stroke-width:1;stroke-miterlimit:4;stroke-dasharray:none;stroke-opacity:1"
           sodipodi:type="arc" />
        <path
           sodipodi:type="arc"
           style="opacity:1;fill:#000000;fill-opacity:1;stroke:none;stroke-width:1;stroke-miterlimit:4;stroke-dasharray:none;stroke-opacity:1"
           id="path2488"
           sodipodi:cx="-125.76399"
           sodipodi:cy="180.13394"
           sodipodi:rx="7.5761442"
           sodipodi:ry="7.5761442"
           d="M -118.18785,180.13394 A 7.5761442,7.5761442 0 1 1 -133.34014,180.13394 A 7.5761442,7.5761442 0 1 1 -118.18785,180.13394 z"
           transform="matrix(0.3256728,-4.4872221e-2,4.4872221e-2,0.3256728,-513.46083,-215.03288)" />
      </g>
    </g>
  </g>
</svg>
